<svg width="20" height="20" viewBox="0 0 20 20" fill="none" xmlns="http://www.w3.org/2000/svg">
<path d="M15.1022 7.36975C15.8463 7.7321 16.6889 7.83937 17.5 7.675V16C17.5 16.1989 17.421 16.3897 17.2803 16.5303C17.1397 16.671 16.9489 16.75 16.75 16.75H3.25C3.05109 16.75 2.86032 16.671 2.71967 16.5303C2.57902 16.3897 2.5 16.1989 2.5 16V4C2.5 3.80109 2.57902 3.61032 2.71967 3.46967C2.86032 3.32902 3.05109 3.25 3.25 3.25H13.075C13.0255 3.49225 13 3.7435 13 4C12.9988 4.89104 13.3161 5.75317 13.8948 6.43075L10.0457 9.76225L5.23525 5.6785L4.26475 6.8215L10.0547 11.7378L15.1022 7.36975ZM16.75 6.25C16.4545 6.25 16.1619 6.1918 15.889 6.07873C15.616 5.96566 15.3679 5.79992 15.159 5.59099C14.9501 5.38206 14.7843 5.13402 14.6713 4.86104C14.5582 4.58806 14.5 4.29547 14.5 4C14.5 3.70453 14.5582 3.41194 14.6713 3.13896C14.7843 2.86598 14.9501 2.61794 15.159 2.40901C15.3679 2.20008 15.616 2.03434 15.889 1.92127C16.1619 1.8082 16.4545 1.75 16.75 1.75C17.3467 1.75 17.919 1.98705 18.341 2.40901C18.7629 2.83097 19 3.40326 19 4C19 4.59674 18.7629 5.16903 18.341 5.59099C17.919 6.01295 17.3467 6.25 16.75 6.25Z" fill="currentColor"/>
</svg>
