<svg width="30" height="30" viewBox="0 0 30 30" fill="none" xmlns="http://www.w3.org/2000/svg">
<path d="M15.4657 7.125H25.125C25.4234 7.125 25.7095 7.24353 25.9205 7.45451C26.1315 7.66548 26.25 7.95163 26.25 8.25V24C26.25 24.2984 26.1315 24.5845 25.9205 24.7955C25.7095 25.0065 25.4234 25.125 25.125 25.125H4.875C4.57663 25.125 4.29048 25.0065 4.0795 24.7955C3.86853 24.5845 3.75 24.2984 3.75 24V6C3.75 5.70163 3.86853 5.41548 4.0795 5.2045C4.29048 4.99353 4.57663 4.875 4.875 4.875H13.2157L15.4657 7.125ZM6 7.125V22.875H24V9.375H14.5343L12.2843 7.125H6ZM13.875 15V11.625H16.125V15H19.5V17.25H16.125V20.625H13.875V17.25H10.5V15H13.875Z" fill="currentColor"/>
</svg>
