<svg width="24" height="24" viewBox="0 0 24 24" fill="none" xmlns="http://www.w3.org/2000/svg">
<path d="M18 2.4H22.8C23.1183 2.4 23.4235 2.52643 23.6485 2.75147C23.8736 2.97652 24 3.28174 24 3.6V22.8C24 23.1183 23.8736 23.4235 23.6485 23.6485C23.4235 23.8736 23.1183 24 22.8 24H1.2C0.88174 24 0.576515 23.8736 0.351472 23.6485C0.126428 23.4235 0 23.1183 0 22.8V3.6C0 3.28174 0.126428 2.97652 0.351472 2.75147C0.576515 2.52643 0.88174 2.4 1.2 2.4H6V0H8.4V2.4H15.6V0H18V2.4ZM21.6 9.6V4.8H18V7.2H15.6V4.8H8.4V7.2H6V4.8H2.4V9.6H21.6ZM21.6 12H2.4V21.6H21.6V12ZM4.8 14.4H10.8V19.2H4.8V14.4Z" fill="currentColor"/>
</svg>
