<svg width="30" height="31" viewBox="0 0 30 31" fill="none" xmlns="http://www.w3.org/2000/svg">
<path d="M15.4657 7.9707H25.125C25.4234 7.9707 25.7095 8.08923 25.9205 8.30021C26.1315 8.51119 26.25 8.79733 26.25 9.0957V24.8457C26.25 25.1441 26.1315 25.4302 25.9205 25.6412C25.7095 25.8522 25.4234 25.9707 25.125 25.9707H4.875C4.57663 25.9707 4.29048 25.8522 4.0795 25.6412C3.86853 25.4302 3.75 25.1441 3.75 24.8457V6.8457C3.75 6.54733 3.86853 6.26119 4.0795 6.05021C4.29048 5.83923 4.57663 5.7207 4.875 5.7207H13.2157L15.4657 7.9707ZM16.125 16.9707V12.4707H13.875V16.9707H10.5L15 21.4707L19.5 16.9707H16.125Z" fill="currentColor"/>
</svg>
