<svg width="18" height="16" viewBox="0 0 18 16" fill="none" xmlns="http://www.w3.org/2000/svg">
<path d="M0.9 0.5H17.1C17.3387 0.5 17.5676 0.594821 17.7364 0.763604C17.9052 0.932387 18 1.16131 18 1.4V14.6C18 14.8387 17.9052 15.0676 17.7364 15.2364C17.5676 15.4052 17.3387 15.5 17.1 15.5H0.9C0.661305 15.5 0.432387 15.4052 0.263604 15.2364C0.0948211 15.0676 0 14.8387 0 14.6V1.4C0 1.16131 0.0948211 0.932387 0.263604 0.763604C0.432387 0.594821 0.661305 0.5 0.9 0.5ZM16.2 4.3142L9.0648 10.7042L1.8 4.2944V13.7H16.2V4.3142ZM2.2599 2.3L9.0549 8.2958L15.7518 2.3H2.2599Z" fill="currentColor"/>
</svg>
