<svg width="24" height="24" viewBox="0 0 24 24" fill="none" xmlns="http://www.w3.org/2000/svg">
<path d="M12 3.8999C16.8528 3.8999 20.8902 7.3919 21.7371 11.9999C20.8911 16.6079 16.8528 20.0999 12 20.0999C7.14721 20.0999 3.10981 16.6079 2.26291 11.9999C3.10891 7.3919 7.14721 3.8999 12 3.8999ZM12 18.2999C13.8355 18.2995 15.6166 17.676 17.0516 16.5316C18.4866 15.3871 19.4906 13.7893 19.8993 11.9999C19.4891 10.2119 18.4845 8.61591 17.0496 7.47293C15.6147 6.32995 13.8345 5.70758 12 5.70758C10.1655 5.70758 8.38533 6.32995 6.95045 7.47293C5.51556 8.61591 4.5109 10.2119 4.10071 11.9999C4.5094 13.7893 5.51342 15.3871 6.94844 16.5316C8.38346 17.676 10.1645 18.2995 12 18.2999ZM12 16.0499C10.9259 16.0499 9.89575 15.6232 9.13623 14.8637C8.37671 14.1042 7.95001 13.074 7.95001 11.9999C7.95001 10.9258 8.37671 9.89564 9.13623 9.13612C9.89575 8.3766 10.9259 7.9499 12 7.9499C13.0741 7.9499 14.1043 8.3766 14.8638 9.13612C15.6233 9.89564 16.05 10.9258 16.05 11.9999C16.05 13.074 15.6233 14.1042 14.8638 14.8637C14.1043 15.6232 13.0741 16.0499 12 16.0499ZM12 14.2499C12.5967 14.2499 13.169 14.0128 13.591 13.5909C14.013 13.1689 14.25 12.5966 14.25 11.9999C14.25 11.4032 14.013 10.8309 13.591 10.4089C13.169 9.98696 12.5967 9.7499 12 9.7499C11.4033 9.7499 10.831 9.98696 10.409 10.4089C9.98706 10.8309 9.75001 11.4032 9.75001 11.9999C9.75001 12.5966 9.98706 13.1689 10.409 13.5909C10.831 14.0128 11.4033 14.2499 12 14.2499Z" fill="currentColor"/>
</svg>
