<svg width="30" height="30" viewBox="0 0 30 30" fill="none" xmlns="http://www.w3.org/2000/svg">
<path d="M9.375 7.125V3.75C9.375 3.45163 9.49353 3.16548 9.7045 2.9545C9.91548 2.74353 10.2016 2.625 10.5 2.625H19.5C19.7984 2.625 20.0845 2.74353 20.2955 2.9545C20.5065 3.16548 20.625 3.45163 20.625 3.75V7.125H25.125C25.4234 7.125 25.7095 7.24353 25.9205 7.4545C26.1315 7.66548 26.25 7.95163 26.25 8.25V24C26.25 24.2984 26.1315 24.5845 25.9205 24.7955C25.7095 25.0065 25.4234 25.125 25.125 25.125H4.875C4.57663 25.125 4.29048 25.0065 4.0795 24.7955C3.86853 24.5845 3.75 24.2984 3.75 24V8.25C3.75 7.95163 3.86853 7.66548 4.0795 7.4545C4.29048 7.24353 4.57663 7.125 4.875 7.125H9.375ZM6 19.5V22.875H24V19.5H6ZM6 17.25H24V9.375H6V17.25ZM11.625 4.875V7.125H18.375V4.875H11.625ZM13.875 13.875H16.125V16.125H13.875V13.875Z" fill="currentColor"/>
</svg>
