<svg width="30" height="31" viewBox="0 0 30 31" fill="none" xmlns="http://www.w3.org/2000/svg">
<path d="M3.75 24.4651H26.25V26.7151H3.75V24.4651ZM6 15.4651H8.25V23.3401H6V15.4651ZM11.625 15.4651H13.875V23.3401H11.625V15.4651ZM16.125 15.4651H18.375V23.3401H16.125V15.4651ZM21.75 15.4651H24V23.3401H21.75V15.4651ZM3.75 9.84009L15 4.21509L26.25 9.84009V14.3401H3.75V9.84009ZM6 11.2306V12.0901H24V11.2306L15 6.73059L6 11.2306ZM15 10.9651C14.7016 10.9651 14.4155 10.8466 14.2045 10.6356C13.9935 10.4246 13.875 10.1385 13.875 9.84009C13.875 9.54172 13.9935 9.25557 14.2045 9.04459C14.4155 8.83361 14.7016 8.71509 15 8.71509C15.2984 8.71509 15.5845 8.83361 15.7955 9.04459C16.0065 9.25557 16.125 9.54172 16.125 9.84009C16.125 10.1385 16.0065 10.4246 15.7955 10.6356C15.5845 10.8466 15.2984 10.9651 15 10.9651Z" fill="currentColor"/>
</svg>
