<svg width="30" height="30" viewBox="0 0 30 30" fill="none" xmlns="http://www.w3.org/2000/svg">
<path d="M8.4375 7.5H17.8125V11.25H21.5625V22.5H8.4375V7.5ZM7.49859 5.625C6.98202 5.625 6.5625 6.0413 6.5625 6.55481V23.4452C6.5625 23.9482 6.97946 24.375 7.49381 24.375H22.5062C23.0204 24.375 23.4375 23.9521 23.4375 23.4305L23.4372 10.3125L18.75 5.625H7.49859ZM13.5937 10.7812C13.5937 12.2601 13.1664 14.0037 12.4452 15.6126C11.7214 17.2272 10.7451 18.6096 9.72679 19.4242L10.8325 20.9363C13.577 19.1066 16.6156 17.852 19.5548 18.2719L19.9839 16.4543C17.4783 15.6191 15.4687 13.1156 15.4687 10.7812H13.5937ZM14.1562 16.3796C14.4068 15.8205 14.6289 15.2403 14.816 14.6517C15.2581 15.331 15.8018 15.9546 16.4157 16.4956C15.4953 16.6604 14.5936 16.9309 13.7205 17.2759C13.8749 16.9822 14.0204 16.6826 14.1562 16.3796Z" fill="currentColor"/>
</svg>
