<svg width="18" height="17" viewBox="0 0 18 17" fill="none" xmlns="http://www.w3.org/2000/svg">
<path d="M8.52065 16.5C7.53844 16.5 6.56586 16.3065 5.65842 15.9307C4.75098 15.5548 3.92647 15.0039 3.23194 14.3093C2.53742 13.6148 1.9865 12.7903 1.61062 11.8829C1.23475 10.9754 1.04129 10.0028 1.04129 9.02065C1.04129 8.03844 1.23475 7.06586 1.61062 6.15842C1.9865 5.25098 2.53742 4.42647 3.23194 3.73194C3.92647 3.03742 4.75098 2.4865 5.65842 2.11062C6.56586 1.73475 7.53844 1.54129 8.52065 1.54129C10.5043 1.54129 12.4067 2.32929 13.8093 3.73194C15.212 5.13459 16 7.037 16 9.02065C16 11.0043 15.212 12.9067 13.8093 14.3093C12.4067 15.712 10.5043 16.5 8.52065 16.5ZM8.52065 14.8379C9.28458 14.8379 10.041 14.6875 10.7468 14.3951C11.4526 14.1028 12.0939 13.6743 12.6341 13.1341C13.1743 12.5939 13.6028 11.9526 13.8951 11.2468C14.1875 10.541 14.3379 9.78458 14.3379 9.02065C14.3379 8.25671 14.1875 7.50026 13.8951 6.79447C13.6028 6.08869 13.1743 5.4474 12.6341 4.90721C12.0939 4.36703 11.4526 3.93853 10.7468 3.64618C10.041 3.35384 9.28458 3.20337 8.52065 3.20337C6.97781 3.20337 5.49816 3.81626 4.40721 4.90721C3.31626 5.99816 2.70337 7.47781 2.70337 9.02065C2.70337 10.5635 3.31626 12.0431 4.40721 13.1341C5.49816 14.225 6.97781 14.8379 8.52065 14.8379ZM9.35168 9.02065H11.8448V10.6827H7.68961V4.86545H9.35168V9.02065ZM0 3.43772L2.93772 0.5L4.11364 1.67509L1.17426 4.61364L0 3.43772ZM14.1027 0.5L17.0413 3.43772L15.8662 4.61364L12.9276 1.67509L14.1036 0.5H14.1027Z" fill="currentColor"/>
</svg>
