<svg width="24" height="24" viewBox="0 0 24 24" fill="none" xmlns="http://www.w3.org/2000/svg">
<path d="M4.7998 21.0001C4.7998 19.0905 5.55837 17.2592 6.90864 15.9089C8.2589 14.5587 10.0902 13.8001 11.9998 13.8001C13.9094 13.8001 15.7407 14.5587 17.091 15.9089C18.4412 17.2592 19.1998 19.0905 19.1998 21.0001H4.7998ZM12.8998 15.6748V19.2001H17.0929C16.7712 18.2924 16.2129 17.487 15.4757 16.8673C14.7386 16.2475 13.8493 15.8358 12.8998 15.6748ZM11.0998 19.2001V15.6748C10.1503 15.8358 9.26102 16.2475 8.52387 16.8673C7.78672 17.487 7.22843 18.2924 6.9067 19.2001H11.0998ZM11.9998 12.9001C9.0163 12.9001 6.5998 10.4836 6.5998 7.5001C6.5998 4.5166 9.0163 2.1001 11.9998 2.1001C14.9833 2.1001 17.3998 4.5166 17.3998 7.5001C17.3998 10.4836 14.9833 12.9001 11.9998 12.9001ZM11.9998 11.1001C13.9888 11.1001 15.5998 9.4891 15.5998 7.5001C15.5998 5.5111 13.9888 3.9001 11.9998 3.9001C10.0108 3.9001 8.3998 5.5111 8.3998 7.5001C8.3998 9.4891 10.0108 11.1001 11.9998 11.1001Z" fill="currentColor"/>
</svg>
