<svg width="30" height="31" viewBox="0 0 30 31" fill="none" xmlns="http://www.w3.org/2000/svg">
<path d="M19.5 11.3457V20.3457H17.25L15 18.0957L12.75 20.3457H10.5V11.3457H12.75V16.9707L15 14.7207L17.25 16.9707V11.3457H18.375V6.8457H7.125V24.8457H22.875V11.3457H19.5ZM4.875 5.7117C4.875 5.0952 5.37788 4.5957 5.99888 4.5957H19.5L25.125 10.2207V25.9628C25.126 26.1106 25.098 26.2571 25.0424 26.394C24.9868 26.5308 24.9048 26.6554 24.8011 26.7606C24.6973 26.8658 24.5739 26.9496 24.4378 27.0071C24.3017 27.0646 24.1556 27.0947 24.0079 27.0957H5.99213C5.69668 27.0936 5.41389 26.9754 5.20487 26.7666C4.99585 26.5578 4.87736 26.2752 4.875 25.9797V5.7117Z" fill="currentColor"/>
</svg>
