<svg width="420" height="93" viewBox="0 0 420 93" fill="none" xmlns="http://www.w3.org/2000/svg">
<path fill-rule="evenodd" clip-rule="evenodd" d="M532 69.4523V94.1262C532 96.8677 529.892 99 527.181 99H236.819C234.108 99 232 96.8677 232 94.1262V69.4523C232 66.7108 234.108 64.5785 236.819 64.5785H241.639V5.17846C241.639 2.43692 243.747 0 246.759 0H256.398C259.108 0 261.518 2.43692 261.518 5.17846V64.5785H324.47V5.17846C324.47 2.43692 326.578 0 329.59 0H339.229C341.94 0 344.349 2.43692 344.349 5.17846V64.5785H419.952V5.17846C419.952 2.43692 422.06 0 425.072 0H434.711C437.422 0 439.831 2.43692 439.831 5.17846V64.5785H502.783V5.17846C502.783 2.43692 504.892 0 507.904 0H517.542C520.253 0 522.663 2.43692 522.663 5.17846V64.5785H527.783C529.892 64.8831 532 67.0154 532 69.4523Z" fill="#CBD0D9"/>
<path fill-rule="evenodd" clip-rule="evenodd" d="M134.806 99H-135C-141.111 99 -146 94.1111 -146 88V11C-146 4.88889 -141.111 0 -135 0H135.111C141.222 0 146.111 4.88889 146.111 11V88C145.806 94.1111 140.917 99 134.806 99Z" fill="#CBD0D9"/>
</svg>
