<svg width="230" height="91" viewBox="0 0 230 91" fill="none" xmlns="http://www.w3.org/2000/svg">
<path fill-rule="evenodd" clip-rule="evenodd" d="M-26.4467 23.8V3.92C-26.4467 1.68 -24.7869 0 -22.5738 0H226.127C228.34 0 230 1.68 230 3.92V23.8C230 24.08 230 24.64 229.723 24.92L209.252 88.48C208.699 90.16 207.315 91 205.655 91H132.622C131.516 91 130.409 90.72 129.579 89.6L124.6 83.72C123.77 82.6 122.94 82.32 121.556 82.32H81.1668C80.0602 82.32 78.9537 82.6 78.1237 83.72L73.1442 89.6C72.3143 90.72 71.4844 91 70.1011 91H-2.9322C-4.59205 91 -5.97526 89.88 -6.52855 88.48L-27 24.92C-26.4467 24.64 -26.4467 24.08 -26.4467 23.8Z" fill="#CBD0D9"/>
</svg>
