<svg width="377" height="95" viewBox="0 0 377 95" fill="none" xmlns="http://www.w3.org/2000/svg">
<path fill-rule="evenodd" clip-rule="evenodd" d="M88 71.4523V96.1262C88 98.8677 85.8915 101 83.1807 101H-207.181C-209.892 101 -212 98.8677 -212 96.1262V71.4523C-212 68.7108 -209.892 66.5785 -207.181 66.5785H-202.361V7.17846C-202.361 4.43692 -200.253 2 -197.241 2H-187.602C-184.892 2 -182.482 4.43692 -182.482 7.17846V66.5785H-119.53V7.17846C-119.53 4.43692 -117.422 2 -114.41 2H-104.771C-102.06 2 -99.6506 4.43692 -99.6506 7.17846V66.5785H-24.0482V7.17846C-24.0482 4.43692 -21.9398 2 -18.9277 2H-9.28917C-6.57833 2 -4.1687 4.43692 -4.1687 7.17846V66.5785H58.7831V7.17846C58.7831 4.43692 60.8916 2 63.9036 2H73.5421C76.253 2 78.6626 4.43692 78.6626 7.17846V66.5785H83.7831C85.8916 66.8831 88 69.0154 88 71.4523Z" fill="#CBD0D9"/>
<path fill-rule="evenodd" clip-rule="evenodd" d="M373.271 95H160.729C158.598 95 157 93.3944 157 91.5211V20.0704C157 12.8451 162.86 7.22535 170.051 7.22535H173.513C173.513 3.21127 176.976 0 180.705 0H191.625C193.755 0 196.153 0.267606 198.283 0.267606H199.881C200.148 0.267606 200.414 0.267606 200.68 0.535211C215.329 1.33803 224.119 4.01409 224.119 7.49296H236.371H297.896H310.148C310.148 4.01409 318.671 1.33803 333.32 0.535211C333.586 0.267606 333.852 0.267606 334.385 0.267606H335.983C338.114 0.267606 339.978 0 342.642 0H353.562C357.557 0 360.753 3.47887 360.753 7.22535H364.216C371.407 7.22535 377 13.1127 377 20.0704V91.2535C377 93.1268 375.402 95 373.271 95Z" fill="#CBD0D9"/>
</svg>
