<svg width="1920" height="89" viewBox="0 0 1920 89" fill="none" xmlns="http://www.w3.org/2000/svg">
<g clip-path="url(#clip0_4702_1835)">
<path d="M-71.0644 81.1959H-70.1579V80.2894V6.4383C-70.1579 3.49521 -67.8782 0.906509 -64.6261 0.906509H-52.507C-49.5991 0.906509 -46.9752 3.53044 -46.9752 6.4383V80.2894V81.1959H-46.0687H33.0846H33.9911V80.2894V6.4383C33.9911 3.49521 36.2708 0.906509 39.5229 0.906509H51.642C54.5499 0.906509 57.1738 3.53044 57.1738 6.4383V80.2894V81.1959H58.0803H153.14H154.047V80.2894V6.4383C154.047 3.4952 156.326 0.906509 159.578 0.906509H171.697C174.605 0.906509 177.229 3.53043 177.229 6.4383V80.2894V81.1959H178.136H257.289H258.195V80.2894V6.4383C258.195 3.49521 260.475 0.906509 263.727 0.906509H275.846C278.754 0.906509 281.378 3.53044 281.378 6.4383V80.2894V81.1959H282.285H288.655C289.723 81.3656 290.84 81.9954 291.699 82.9363C292.57 83.8908 293.119 85.101 293.119 86.349V117.026C293.119 119.933 290.873 122.179 287.966 122.179H-77.124C-80.0319 122.179 -82.2771 119.934 -82.2771 117.026V86.349C-82.2771 83.4411 -80.0319 81.1959 -77.124 81.1959H-71.0644Z" stroke="white" stroke-opacity="0.3" stroke-width="1.81302" stroke-miterlimit="10"/>
<path d="M717.361 33.0654L717.207 33.219L717.14 33.4254L689.116 119.39C689.116 119.391 689.115 119.393 689.115 119.394C688.497 121.243 686.989 122.179 685.053 122.179H585.069C583.718 122.179 582.532 121.852 581.629 120.648L581.611 120.624L581.592 120.602L574.793 112.67C574.161 111.833 573.48 111.248 572.645 110.89C571.818 110.536 570.918 110.438 569.921 110.438H514.627C512.956 110.438 511.121 110.865 509.754 112.67L502.956 120.602L502.936 120.624L502.919 120.648C502.42 121.313 501.97 121.667 501.488 121.873C500.989 122.087 500.374 122.179 499.478 122.179H399.495C397.647 122.179 396.067 120.945 395.424 119.366L367.606 34.0323C368.214 33.3731 368.211 32.52 368.21 32.2227C368.21 32.2115 368.21 32.2011 368.21 32.1915V5.30213C368.21 2.77299 370.076 0.906509 372.605 0.906509H713.078C715.607 0.906509 717.474 2.77301 717.474 5.30213V32.1915C717.474 32.3861 717.472 32.5996 717.439 32.7999C717.409 32.9788 717.369 33.0496 717.36 33.064C717.358 33.0674 717.358 33.0676 717.361 33.0654Z" stroke="white" stroke-opacity="0.3" stroke-width="1.81302" stroke-miterlimit="10"/>
<path d="M814.382 11.132H815.289V10.2255C815.289 5.06684 819.785 0.906509 824.608 0.906509H840.135C841.619 0.906509 843.201 0.999291 844.816 1.09431L844.831 1.09519C846.43 1.18925 848.062 1.28523 849.604 1.28523H851.876C852.082 1.28523 852.16 1.28955 852.224 1.30551C852.258 1.31387 852.3 1.32775 852.371 1.39845L852.616 1.64372L852.963 1.66261C863.346 2.22895 871.598 3.4542 877.229 5.12951C880.05 5.96889 882.155 6.9047 883.536 7.88705C884.928 8.8771 885.433 9.7992 885.433 10.6043V11.5108H886.34H903.761H991.246H1008.67H1009.57V10.6043C1009.57 9.78761 1010.07 8.86527 1011.42 7.88102C1012.76 6.90153 1014.82 5.96706 1017.59 5.12832C1023.13 3.45416 1031.28 2.22896 1041.67 1.66261L1042.01 1.64372L1042.26 1.39845C1042.3 1.35891 1042.32 1.34521 1042.33 1.33966C1042.34 1.33408 1042.36 1.3245 1042.41 1.31497C1042.54 1.28917 1042.72 1.28523 1043.13 1.28523H1045.4C1046.86 1.28523 1048.24 1.19913 1049.65 1.11035L1049.91 1.09411C1051.42 0.999561 1053.01 0.906509 1054.87 0.906509H1070.4C1075.56 0.906509 1079.72 5.40228 1079.72 10.2255V11.132H1080.62H1085.55C1095.26 11.132 1102.82 19.0458 1102.82 28.4043V117.941C1102.82 120.133 1100.91 122.336 1098.43 122.336H796.204C793.63 122.336 791.808 120.427 791.808 118.32V28.4043C791.808 18.7036 799.709 11.132 809.459 11.132H814.382Z" stroke="white" stroke-opacity="0.3" stroke-width="1.81302" stroke-miterlimit="10"/>
<path d="M1527.06 33.0654L1526.91 33.219L1526.84 33.4254L1498.82 119.39C1498.82 119.391 1498.82 119.393 1498.82 119.394C1498.2 121.243 1496.69 122.179 1494.75 122.179H1394.77C1393.42 122.179 1392.23 121.852 1391.33 120.648L1391.31 120.624L1391.29 120.602L1384.5 112.67C1383.86 111.833 1383.18 111.248 1382.35 110.89C1381.52 110.536 1380.62 110.438 1379.62 110.438H1324.33C1322.66 110.438 1320.82 110.865 1319.46 112.67L1312.66 120.602L1312.64 120.624L1312.62 120.648C1312.12 121.313 1311.67 121.667 1311.19 121.873C1310.69 122.087 1310.08 122.179 1309.18 122.179H1209.2C1207.35 122.179 1205.77 120.945 1205.13 119.366L1177.31 34.0323C1177.92 33.3731 1177.91 32.52 1177.91 32.2227C1177.91 32.2115 1177.91 32.2011 1177.91 32.1915V5.30213C1177.91 2.77299 1179.78 0.906509 1182.31 0.906509H1522.78C1525.31 0.906509 1527.18 2.77301 1527.18 5.30213V32.1915C1527.18 32.3861 1527.17 32.5996 1527.14 32.7999C1527.11 32.9788 1527.07 33.0496 1527.06 33.064C1527.06 33.0674 1527.06 33.0676 1527.06 33.0654Z" stroke="white" stroke-opacity="0.3" stroke-width="1.81302" stroke-miterlimit="10"/>
<path d="M1889.95 122.557H1662.33C1628.75 122.557 1601.51 95.3164 1601.51 61.732C1601.51 28.1475 1628.75 0.906509 1662.33 0.906509H1889.95C1923.53 0.906509 1950.77 28.1475 1950.77 61.732C1950.77 95.3164 1923.53 122.557 1889.95 122.557Z" stroke="white" stroke-opacity="0.3" stroke-width="1.81302" stroke-miterlimit="10"/>
</g>
<defs>
<clipPath id="clip0_4702_1835">
<rect width="2522" height="123.464" fill="white" transform="translate(-107)"/>
</clipPath>
</defs>
</svg>
