<svg width="1825" height="83" viewBox="0 0 1825 83" fill="none" xmlns="http://www.w3.org/2000/svg">
<path d="M257.619 81.5932H10.0917C4.80682 81.5932 0.70339 77.7804 0.70339 73.1525V9.14407C0.70339 4.51616 4.80682 0.70339 10.0917 0.70339H257.9C263.185 0.70339 267.288 4.51616 267.288 9.14407V73.1328C267.02 77.7918 262.886 81.5932 257.619 81.5932Z" stroke="white" stroke-opacity="0.35" stroke-width="1.40678" stroke-miterlimit="10"/>
<path d="M326.751 54.8449H327.454V54.1415V4.34154C327.454 2.46589 329.067 0.70339 331.517 0.70339H340.489C342.687 0.70339 344.552 2.49189 344.552 4.34154V54.1415V54.8449H345.255H403.852H404.555V54.1415V4.34154C404.555 2.46589 406.168 0.70339 408.618 0.70339H417.59C419.788 0.70339 421.653 2.49189 421.653 4.34154V54.1415V54.8449H422.356H492.728H493.432V54.1415V4.34154C493.432 2.46589 495.044 0.70339 497.495 0.70339H506.466C508.664 0.70339 510.529 2.49189 510.529 4.34154V54.1415V54.8449H511.233H569.829H570.533V54.1415V4.34154C570.533 2.46589 572.145 0.70339 574.596 0.70339H583.567C585.765 0.70339 587.63 2.49189 587.63 4.34154V54.1415V54.8449H588.334H593.052C593.851 54.9599 594.675 55.3869 595.302 56.0122C595.939 56.6479 596.322 57.4355 596.322 58.2277V78.9138C596.322 80.7635 594.737 82.2966 592.539 82.2966H322.265C320.067 82.2966 318.483 80.7635 318.483 78.9138V58.2277C318.483 56.378 320.067 54.8449 322.265 54.8449H326.751Z" stroke="white" stroke-opacity="0.35" stroke-width="1.40678" stroke-miterlimit="10"/>
<path d="M906.302 22.2187L906.183 22.3274L906.124 22.4924L885.395 80.46C885.395 80.4609 885.395 80.4618 885.394 80.4626C884.959 81.6503 883.875 82.2966 882.414 82.2966H808.456C807.442 82.2966 806.57 82.0692 805.917 81.2762L805.903 81.2582L805.887 81.2412L800.859 75.8945C800.384 75.3215 799.875 74.9247 799.257 74.6833C798.647 74.4451 797.985 74.3797 797.25 74.3797H756.349C755.128 74.3797 753.766 74.6602 752.74 75.8943L747.712 81.2412L747.696 81.2582L747.682 81.2762C747.321 81.7146 746.994 81.9504 746.638 82.0895C746.267 82.2343 745.809 82.2966 745.143 82.2966H671.185C669.797 82.2966 668.653 81.4556 668.197 80.4401L647.649 22.9796C647.795 22.8199 647.897 22.6412 647.963 22.46C648.077 22.1498 648.076 21.853 648.076 21.7221C648.076 21.717 648.076 21.7122 648.076 21.7077V3.57538C648.076 1.98062 649.379 0.70339 651.295 0.70339H903.145C905.06 0.70339 906.363 1.98064 906.363 3.57538V21.7077C906.363 21.8397 906.362 21.9713 906.34 22.092C906.324 22.1764 906.306 22.2112 906.302 22.2187Z" stroke="white" stroke-opacity="0.35" stroke-width="1.40678" stroke-miterlimit="10"/>
<path d="M974.277 7.58994H974.981V6.88655C974.981 3.52751 978.236 0.70339 981.865 0.70339H993.386C994.488 0.70339 995.663 0.765941 996.862 0.829918L996.872 0.830482C998.059 0.893853 999.269 0.958447 1000.41 0.958447H1002.1C1002.25 0.958447 1002.31 0.961248 1002.36 0.972896C1002.39 0.979723 1002.42 0.990024 1002.47 1.03096L1002.65 1.20019L1002.91 1.21264C1010.61 1.59413 1016.74 2.41951 1020.92 3.54846C1023.01 4.11434 1024.58 4.74493 1025.6 5.40511C1026.64 6.07844 1026.97 6.67504 1026.97 7.14161V7.845H1027.67H1040.6H1105.51H1118.44H1119.14V7.14161C1119.14 6.66567 1119.46 6.06941 1120.47 5.40088C1121.47 4.74282 1122.99 4.11316 1125.05 3.54768C1129.16 2.41949 1135.22 1.59413 1142.92 1.21264L1143.17 1.20019L1143.36 1.03095C1143.4 0.998504 1143.41 0.989239 1143.47 0.979018C1143.57 0.960983 1143.71 0.958447 1144.01 0.958447H1145.7C1146.78 0.958447 1147.8 0.900517 1148.85 0.840714L1149.04 0.82979C1150.16 0.766113 1151.34 0.70339 1152.72 0.70339H1164.24C1168.12 0.70339 1171.13 3.7508 1171.13 6.88655V7.58994H1171.83H1175.48C1182.74 7.58994 1188.27 12.9398 1188.27 19.1293V79.4292C1188.27 80.7946 1186.93 82.2966 1185.04 82.2966H960.789C958.828 82.2966 957.558 80.9869 957.558 79.6842V19.1293C957.558 12.7116 963.34 7.58994 970.624 7.58994H974.277Z" stroke="white" stroke-opacity="0.35" stroke-width="1.40678" stroke-miterlimit="10"/>
<path d="M1498.99 22.0916C1498.98 22.1759 1498.96 22.2106 1498.95 22.2181L1498.83 22.3268L1498.78 22.4918L1477.99 80.4594C1477.99 80.4601 1477.99 80.4608 1477.99 80.4616C1477.55 81.6491 1476.47 82.2966 1475 82.2966H1400.84C1399.82 82.2966 1398.95 82.0689 1398.29 81.2755L1398.28 81.2575L1398.26 81.2406L1393.22 75.8939C1392.75 75.3208 1392.23 74.9243 1391.62 74.6831C1391.01 74.4451 1390.34 74.3797 1389.6 74.3797H1348.59C1347.37 74.3797 1346.01 74.6599 1344.98 75.8937L1339.94 81.2406L1339.92 81.2575L1339.9 81.2755C1339.54 81.7139 1339.21 81.95 1338.86 82.0892C1338.49 82.2343 1338.02 82.2966 1337.36 82.2966H1263.2C1261.81 82.2966 1260.66 81.4546 1260.2 80.4395L1239.6 22.9799C1239.74 22.8204 1239.85 22.6419 1239.91 22.4606C1240.03 22.1501 1240.03 21.853 1240.03 21.7221C1240.03 21.717 1240.03 21.7122 1240.03 21.7077V3.57538C1240.03 1.98231 1241.33 0.70339 1243.26 0.70339H1495.79C1497.71 0.70339 1499.01 1.98233 1499.01 3.57538V21.7077C1499.01 21.8397 1499.01 21.9712 1498.99 22.0916Z" stroke="white" stroke-opacity="0.35" stroke-width="1.40678" stroke-miterlimit="10"/>
<path d="M1763.42 82.2966H1595.14C1570.27 82.2966 1550.21 63.9642 1550.21 41.5C1550.21 19.0358 1570.27 0.70339 1595.14 0.70339H1763.42C1788.29 0.70339 1808.35 19.0358 1808.35 41.5C1808.35 63.9642 1788.29 82.2966 1763.42 82.2966Z" stroke="white" stroke-opacity="0.35" stroke-width="1.40678" stroke-miterlimit="10"/>
</svg>
