<svg width="30" height="31" viewBox="0 0 30 31" fill="none" xmlns="http://www.w3.org/2000/svg">
<g id="file-add-line">
<path id="Vector" d="M18.375 6.57739H7.125V24.5774H22.875V11.0774H18.375V6.57739ZM4.875 5.44339C4.875 4.82689 5.37788 4.32739 5.99888 4.32739H19.5L25.125 9.95239V25.6945C25.126 25.8423 25.098 25.9888 25.0424 26.1256C24.9868 26.2625 24.9048 26.3871 24.8011 26.4923C24.6973 26.5975 24.5739 26.6813 24.4378 26.7388C24.3017 26.7962 24.1556 26.8264 24.0079 26.8274H5.99213C5.69668 26.8253 5.41389 26.7071 5.20487 26.4983C4.99585 26.2895 4.87736 26.0068 4.875 25.7114V5.44339ZM13.875 14.4524V11.0774H16.125V14.4524H19.5V16.7024H16.125V20.0774H13.875V16.7024H10.5V14.4524H13.875Z" fill="#768096"/>
</g>
</svg>
