<svg width="30" height="31" viewBox="0 0 30 31" fill="none" xmlns="http://www.w3.org/2000/svg">
<g id="settings-3-line">
<path id="Vector" d="M5.25748 20.7801C4.78191 19.9577 4.41222 19.0785 4.15723 18.1633C4.7122 17.8811 5.17827 17.4508 5.50388 16.9201C5.8295 16.3894 6.00196 15.779 6.0022 15.1563C6.00243 14.5337 5.83042 13.9231 5.5052 13.3922C5.17999 12.8613 4.71424 12.4306 4.15948 12.1479C4.66802 10.3091 5.6363 8.63002 6.9731 7.26882C7.49521 7.60826 8.10105 7.79663 8.72358 7.81308C9.34611 7.82952 9.96105 7.67341 10.5003 7.36201C11.0396 7.05061 11.4823 6.59607 11.7792 6.04869C12.0762 5.50132 12.2159 4.88245 12.183 4.26057C14.0304 3.78315 15.9689 3.78392 17.8159 4.26282C17.7832 4.88468 17.9232 5.50346 18.2204 6.05068C18.5176 6.5979 18.9604 7.05223 19.4998 7.36339C20.0392 7.67455 20.6542 7.83041 21.2767 7.81372C21.8992 7.79703 22.5049 7.60844 23.0269 7.26882C23.6782 7.93257 24.2565 8.68745 24.7425 9.53007C25.2296 10.3727 25.5941 11.2513 25.8427 12.1468C25.2878 12.4291 24.8217 12.8594 24.4961 13.3901C24.1705 13.9208 23.998 14.5312 23.9978 15.1538C23.9975 15.7764 24.1695 16.387 24.4948 16.9179C24.82 17.4489 25.2857 17.8795 25.8405 18.1622C25.3319 20.001 24.3637 21.6801 23.0269 23.0413C22.5047 22.7019 21.8989 22.5135 21.2764 22.4971C20.6538 22.4806 20.0389 22.6367 19.4996 22.9481C18.9603 23.2595 18.5177 23.7141 18.2207 24.2615C17.9237 24.8088 17.784 25.4277 17.817 26.0496C15.9696 26.527 14.0311 26.5262 12.1841 26.0473C12.2168 25.4255 12.0768 24.8067 11.7796 24.2595C11.4824 23.7122 11.0396 23.2579 10.5002 22.9468C9.96076 22.6356 9.34579 22.4797 8.72329 22.4964C8.1008 22.5131 7.49506 22.7017 6.9731 23.0413C6.30822 22.3629 5.73177 21.6031 5.25748 20.7801ZM11.625 21.0006C12.8238 21.692 13.7252 22.8017 14.1562 24.1168C14.7176 24.1697 15.2812 24.1708 15.8426 24.1179C16.2739 22.8027 17.1757 21.6929 18.375 21.0017C19.5733 20.3083 20.9856 20.082 22.3406 20.3661C22.6669 19.9071 22.9481 19.4177 23.1821 18.9058C22.259 17.8747 21.749 16.5391 21.75 15.1551C21.75 13.7376 22.2787 12.4135 23.1821 11.4043C22.9464 10.8926 22.664 10.4038 22.3384 9.94407C20.9842 10.2279 19.5729 10.002 18.375 9.30957C17.1761 8.61812 16.2748 7.50843 15.8437 6.19332C15.2824 6.14045 14.7187 6.13932 14.1574 6.1922C13.726 7.50749 12.8242 8.6172 11.625 9.30845C10.4266 10.0018 9.01439 10.2282 7.65935 9.94407C7.33374 10.4034 7.052 10.8923 6.81785 11.4043C7.74099 12.4355 8.25097 13.7711 8.24998 15.1551C8.24998 16.5726 7.72123 17.8967 6.81785 18.9058C7.05351 19.4175 7.33596 19.9064 7.6616 20.3661C9.01578 20.0822 10.4271 20.3082 11.625 21.0006ZM15 18.5301C14.1049 18.5301 13.2464 18.1745 12.6135 17.5416C11.9806 16.9086 11.625 16.0502 11.625 15.1551C11.625 14.26 11.9806 13.4015 12.6135 12.7686C13.2464 12.1357 14.1049 11.7801 15 11.7801C15.8951 11.7801 16.7535 12.1357 17.3865 12.7686C18.0194 13.4015 18.375 14.26 18.375 15.1551C18.375 16.0502 18.0194 16.9086 17.3865 17.5416C16.7535 18.1745 15.8951 18.5301 15 18.5301ZM15 16.2801C15.2983 16.2801 15.5845 16.1615 15.7955 15.9506C16.0064 15.7396 16.125 15.4534 16.125 15.1551C16.125 14.8567 16.0064 14.5706 15.7955 14.3596C15.5845 14.1486 15.2983 14.0301 15 14.0301C14.7016 14.0301 14.4155 14.1486 14.2045 14.3596C13.9935 14.5706 13.875 14.8567 13.875 15.1551C13.875 15.4534 13.9935 15.7396 14.2045 15.9506C14.4155 16.1615 14.7016 16.2801 15 16.2801Z" fill="#768096"/>
</g>
</svg>
