<svg width="30" height="31" viewBox="0 0 30 31" fill="none" xmlns="http://www.w3.org/2000/svg">
<g id="folder-2-line">
<path id="Vector" d="M15.4657 7.85742H25.125C25.4234 7.85742 25.7095 7.97595 25.9205 8.18693C26.1315 8.39791 26.25 8.68405 26.25 8.98242V24.7324C26.25 25.0308 26.1315 25.3169 25.9205 25.5279C25.7095 25.7389 25.4234 25.8574 25.125 25.8574H4.875C4.57663 25.8574 4.29048 25.7389 4.0795 25.5279C3.86853 25.3169 3.75 25.0308 3.75 24.7324V6.73242C3.75 6.43405 3.86853 6.14791 4.0795 5.93693C4.29048 5.72595 4.57663 5.60742 4.875 5.60742H13.2157L15.4657 7.85742ZM24 14.6074H6V23.6074H24V14.6074ZM24 12.3574V10.1074H14.5343L12.2843 7.85742H6V12.3574H24Z" fill="#768096"/>
</g>
</svg>
