<svg width="30" height="31" viewBox="0 0 30 31" fill="none" xmlns="http://www.w3.org/2000/svg">
<g id="logout-box-line">
<path id="Vector" d="M6 21.7925H8.25V24.0425H21.75V6.04248H8.25V8.29248H6V4.91748C6 4.61911 6.11853 4.33296 6.3295 4.12199C6.54048 3.91101 6.82663 3.79248 7.125 3.79248H22.875C23.1734 3.79248 23.4595 3.91101 23.6705 4.12199C23.8815 4.33296 24 4.61911 24 4.91748V25.1675C24 25.4658 23.8815 25.752 23.6705 25.963C23.4595 26.174 23.1734 26.2925 22.875 26.2925H7.125C6.82663 26.2925 6.54048 26.174 6.3295 25.963C6.11853 25.752 6 25.4658 6 25.1675V21.7925ZM8.25 13.9175H16.125V16.1675H8.25V19.5425L2.625 15.0425L8.25 10.5425V13.9175Z" fill="#768096"/>
</g>
</svg>
