<svg width="30" height="31" viewBox="0 0 30 31" fill="none" xmlns="http://www.w3.org/2000/svg">
<g id="mail-line">
<path id="Vector" d="M4.875 6.51245H25.125C25.4234 6.51245 25.7095 6.63098 25.9205 6.84196C26.1315 7.05293 26.25 7.33908 26.25 7.63745V24.1375C26.25 24.4358 26.1315 24.722 25.9205 24.9329C25.7095 25.1439 25.4234 25.2625 25.125 25.2625H4.875C4.57663 25.2625 4.29048 25.1439 4.0795 24.9329C3.86853 24.722 3.75 24.4358 3.75 24.1375V7.63745C3.75 7.33908 3.86853 7.05293 4.0795 6.84196C4.29048 6.63098 4.57663 6.51245 4.875 6.51245ZM24 11.2802L15.081 19.2677L6 11.2555V23.0125H24V11.2802ZM6.57488 8.76245L15.0686 16.2572L23.4398 8.76245H6.57488Z" fill="#768096"/>
</g>
</svg>
