<svg width="30" height="31" viewBox="0 0 30 31" fill="none" xmlns="http://www.w3.org/2000/svg">
<g id="notification-4-line">
<path id="Vector" d="M21.75 13.0601C21.75 11.2698 21.0388 9.55296 19.773 8.28709C18.5071 7.02122 16.7902 6.31006 15 6.31006C13.2098 6.31006 11.4929 7.02122 10.227 8.28709C8.96116 9.55296 8.25 11.2698 8.25 13.0601V22.0601H21.75V13.0601ZM24 22.8104L24.45 23.4101C24.5127 23.4936 24.5508 23.593 24.5602 23.697C24.5696 23.8011 24.5498 23.9057 24.5031 23.9991C24.4564 24.0926 24.3846 24.1711 24.2957 24.226C24.2069 24.281 24.1045 24.3101 24 24.3101H6C5.89554 24.3101 5.79314 24.281 5.70428 24.226C5.61542 24.1711 5.5436 24.0926 5.49688 23.9991C5.45017 23.9057 5.43039 23.8011 5.43977 23.697C5.44915 23.593 5.48732 23.4936 5.55 23.4101L6 22.8104V13.0601C6 10.6731 6.94821 8.38392 8.63604 6.6961C10.3239 5.00827 12.6131 4.06006 15 4.06006C17.3869 4.06006 19.6761 5.00827 21.364 6.6961C23.0518 8.38392 24 10.6731 24 13.0601V22.8104ZM12.1875 25.4351H17.8125C17.8125 26.181 17.5162 26.8964 16.9887 27.4238C16.4613 27.9512 15.7459 28.2476 15 28.2476C14.2541 28.2476 13.5387 27.9512 13.0113 27.4238C12.4838 26.8964 12.1875 26.181 12.1875 25.4351Z" fill="#768096"/>
</g>
</svg>
