<svg width="153" height="55" viewBox="0 0 153 55" fill="none" xmlns="http://www.w3.org/2000/svg">
<g id="Logo" clip-path="url(#clip0_1108_3584)">
<path id="Vector" fill-rule="evenodd" clip-rule="evenodd" d="M0 6.20326V2.4206C0 2.04233 0.302231 1.66406 0.755578 1.66406H48.9614C49.3392 1.66406 49.717 1.96668 49.717 2.4206V6.20326C49.717 6.27892 49.717 6.35457 49.717 6.43022L45.7124 18.6104C45.6369 18.913 45.3347 19.0643 45.0324 19.0643H30.8276C30.6009 19.0643 30.4498 18.9887 30.2987 18.8374L29.392 17.7026C29.2409 17.5513 29.0897 17.4756 28.8631 17.4756H20.9295C20.7028 17.4756 20.5517 17.5513 20.4006 17.7026L19.4939 18.8374C19.3428 18.9887 19.1917 19.0643 18.965 19.0643H4.76014C4.45791 19.0643 4.15568 18.913 4.08012 18.6104L0.0755578 6.43022C0 6.35457 0 6.27892 0 6.20326Z" fill="#0155E9"/>
<path id="Vector_2" fill-rule="evenodd" clip-rule="evenodd" d="M0 6.20326V2.4206C0 2.04233 0.302231 1.66406 0.755578 1.66406H48.9614C49.3392 1.66406 49.717 1.96668 49.717 2.4206V6.20326C49.717 6.27892 49.717 6.35457 49.717 6.43022L45.7124 18.6104C45.6369 18.913 45.3347 19.0643 45.0324 19.0643H30.8276C30.6009 19.0643 30.4498 18.9887 30.2987 18.8374L29.392 17.7026C29.2409 17.5513 29.0897 17.4756 28.8631 17.4756H20.9295C20.7028 17.4756 20.5517 17.5513 20.4006 17.7026L19.4939 18.8374C19.3428 18.9887 19.1917 19.0643 18.965 19.0643H4.76014C4.45791 19.0643 4.15568 18.913 4.08012 18.6104L0.0755578 6.43022C0 6.35457 0 6.27892 0 6.20326Z" fill="#0155E9"/>
<path id="Vector_3" fill-rule="evenodd" clip-rule="evenodd" d="M150.208 19.0649H107.367C106.989 19.0649 106.611 18.7623 106.611 18.384V4.08556C106.611 2.64814 107.745 1.51334 109.256 1.51334H109.936C109.936 0.756808 110.616 0.0759277 111.371 0.0759277H113.563C114.016 0.0759277 114.469 0.151581 114.847 0.151581H115.149C115.149 0.151581 115.225 0.151581 115.3 0.151581C118.247 0.302888 119.985 0.832461 119.985 1.51334H122.478H134.87H137.363C137.363 0.832461 139.026 0.302888 142.048 0.151581C142.123 0.151581 142.123 0.151581 142.199 0.151581H142.501C142.879 0.151581 143.332 0.0759277 143.786 0.0759277H145.977C146.732 0.0759277 147.413 0.756808 147.413 1.51334H148.093C149.528 1.51334 150.661 2.64814 150.661 4.08556V18.384C150.964 18.7623 150.661 19.0649 150.208 19.0649Z" fill="#0155E9"/>
<path id="Vector_4" fill-rule="evenodd" clip-rule="evenodd" d="M94.2961 19.0653H62.1084C57.2728 19.0653 53.3438 15.1313 53.3438 10.2895C53.3438 5.44765 57.2728 1.51367 62.1084 1.51367H94.3716C99.2073 1.51367 103.136 5.44765 103.136 10.2895C103.061 15.2069 99.1318 19.0653 94.2961 19.0653Z" fill="#00B851"/>
<path id="Vector_5" d="M93.767 16.5693C97.1888 16.5693 99.9628 13.7918 99.9628 10.3657C99.9628 6.93954 97.1888 4.16211 93.767 4.16211C90.3452 4.16211 87.5713 6.93954 87.5713 10.3657C87.5713 13.7918 90.3452 16.5693 93.767 16.5693Z" fill="white"/>
<g id="Group">
<path id="Vector_6" d="M12.8448 27.5391C7.32911 27.5391 2.64453 30.5652 2.64453 36.8444C2.64453 43.1993 7.32911 46.1498 12.8448 46.1498C18.3605 46.1498 23.0451 43.275 23.0451 36.8444C22.9696 30.5652 18.3605 27.5391 12.8448 27.5391ZM12.8448 41.6862C9.74696 41.6862 7.55579 40.3245 7.55579 36.9201C7.55579 33.44 9.74696 32.0783 12.8448 32.0783C15.9427 32.0783 18.1339 33.5157 18.1339 36.9201C18.1339 40.1732 15.9427 41.6862 12.8448 41.6862ZM36.1922 27.9173C32.8676 27.9173 31.2809 28.9765 30.072 30.6408H29.8453V27.9173H24.8585V46.1498H29.8453V37.374C29.8453 34.8774 30.5253 32.1539 34.7566 32.1539C39.5167 32.1539 39.2145 35.634 39.2145 37.0714V46.1498H44.1257V37.0714C44.1257 34.4235 43.8991 27.9173 36.1922 27.9173Z" fill="#0155E9"/>
<path id="Vector_7" d="M61.7306 28.0684L56.4416 41.7616H55.9127L50.6236 28.0684H45.4102L52.437 46.1495H59.9928L66.9441 28.0684H61.7306Z" fill="#0155E9"/>
<path id="Vector_8" d="M82.2066 30.6415C80.9222 28.9771 78.8821 27.918 75.5576 27.918C67.8507 27.918 67.0195 34.4242 67.0195 37.072C67.0195 39.5686 67.9262 46.2261 75.5576 46.2261C79.0332 46.2261 81.0733 45.2426 82.2822 43.6539H82.5089V46.1504H87.4201V27.918H82.5089V30.6415H82.2066ZM76.9932 41.9138C72.3086 41.9138 71.7797 38.3581 71.7797 36.9964C71.7797 35.559 72.3086 32.0789 76.9932 32.0789C81.2999 32.0789 82.1311 34.4998 82.1311 36.9964C82.1311 39.7955 81.2244 41.9138 76.9932 41.9138Z" fill="#0155E9"/>
<path id="Vector_9" d="M104.723 28.0684V30.7919H104.421C103.136 29.1275 101.096 28.0684 97.6962 28.0684C89.9893 28.0684 89.1582 34.5746 89.1582 37.2224C89.1582 39.719 89.9893 46.3765 97.6962 46.3765C101.096 46.3765 103.212 45.393 104.421 43.8043H104.648V45.166C104.648 48.4948 103.136 50.6887 99.8119 50.6887C95.9584 50.6887 95.0517 48.7974 94.9761 47.8139H90.0649C90.0649 50.5374 91.6516 54.9253 99.8119 54.9253C108.879 54.9253 109.559 48.1165 109.559 44.4095V28.0684H104.723ZM99.2074 42.1399C94.4472 42.1399 93.9183 38.5842 93.9183 37.2981C93.9183 35.8607 94.4472 32.3806 99.2074 32.3806C103.514 32.3806 104.345 34.8015 104.345 37.2981C104.345 40.0216 103.439 42.1399 99.2074 42.1399Z" fill="#0155E9"/>
<path id="Vector_10" d="M121.497 27.5391C115.981 27.5391 111.372 30.5652 111.372 36.8444C111.372 43.1237 115.981 46.1498 121.497 46.1498C127.088 46.1498 131.697 43.275 131.697 36.8444C131.697 30.5652 127.013 27.5391 121.497 27.5391ZM121.497 41.6862C118.399 41.6862 116.208 40.3245 116.208 36.9201C116.208 33.44 118.399 32.0783 121.497 32.0783C124.595 32.0783 126.861 33.5157 126.861 36.9201C126.786 40.1732 124.595 41.6862 121.497 41.6862Z" fill="#0155E9"/>
<path id="Vector_11" d="M144.844 27.918C141.595 27.918 139.933 28.9771 138.724 30.6415H138.422V27.918H133.511V46.1504H138.422V37.3746C138.422 34.8781 139.102 32.1546 143.333 32.1546C148.093 32.1546 147.791 35.6346 147.791 37.072V46.1504H152.702V37.072C152.778 34.4242 152.627 27.918 144.844 27.918Z" fill="#0155E9"/>
</g>
</g>
<defs>
<clipPath id="clip0_1108_3584">
<rect width="152.778" height="55" fill="white"/>
</clipPath>
</defs>
</svg>
