<svg width="167" height="60" viewBox="0 0 167 60" fill="none" xmlns="http://www.w3.org/2000/svg">
<g clip-path="url(#clip0_4702_1792)">
<path fill-rule="evenodd" clip-rule="evenodd" d="M0 6.76826V2.64172C0 2.22906 0.329437 1.81641 0.823594 1.81641H53.3689C53.7807 1.81641 54.1925 2.14653 54.1925 2.64172V6.76826C54.1925 6.85079 54.1925 6.93333 54.1925 7.01586L49.8274 20.3033C49.7451 20.6335 49.4156 20.7985 49.0862 20.7985H33.6026C33.3555 20.7985 33.1908 20.716 33.0261 20.5509L32.0378 19.313C31.8731 19.1479 31.7084 19.0654 31.4613 19.0654H22.8135C22.5665 19.0654 22.4017 19.1479 22.237 19.313L21.2487 20.5509C21.084 20.716 20.9193 20.7985 20.6722 20.7985H5.18864C4.8592 20.7985 4.52976 20.6335 4.44741 20.3033L0.0823594 7.01586C0 6.93333 0 6.85079 0 6.76826Z" fill="white"/>
<path fill-rule="evenodd" clip-rule="evenodd" d="M0 6.76826V2.64172C0 2.22906 0.329437 1.81641 0.823594 1.81641H53.3689C53.7807 1.81641 54.1925 2.14653 54.1925 2.64172V6.76826C54.1925 6.85079 54.1925 6.93333 54.1925 7.01586L49.8274 20.3033C49.7451 20.6335 49.4156 20.7985 49.0862 20.7985H33.6026C33.3555 20.7985 33.1908 20.716 33.0261 20.5509L32.0378 19.313C31.8731 19.1479 31.7084 19.0654 31.4613 19.0654H22.8135C22.5665 19.0654 22.4017 19.1479 22.237 19.313L21.2487 20.5509C21.084 20.716 20.9193 20.7985 20.6722 20.7985H5.18864C4.8592 20.7985 4.52976 20.6335 4.44741 20.3033L0.0823594 7.01586C0 6.93333 0 6.85079 0 6.76826Z" fill="white"/>
<path fill-rule="evenodd" clip-rule="evenodd" d="M163.73 20.7973H117.033C116.621 20.7973 116.209 20.4672 116.209 20.0545V4.45617C116.209 2.88808 117.444 1.65012 119.092 1.65012H119.833C119.833 0.82481 120.574 0.0820312 121.398 0.0820312H123.786C124.28 0.0820312 124.774 0.164562 125.186 0.164562H125.516C125.516 0.164562 125.598 0.164562 125.68 0.164562C128.892 0.329624 130.787 0.907341 130.787 1.65012H133.504H147.011H149.729C149.729 0.907341 151.541 0.329624 154.836 0.164562C154.918 0.164562 154.918 0.164562 155 0.164562H155.33C155.741 0.164562 156.236 0.0820312 156.73 0.0820312H159.118C159.942 0.0820312 160.683 0.82481 160.683 1.65012H161.424C162.989 1.65012 164.224 2.88808 164.224 4.45617V20.0545C164.554 20.4672 164.224 20.7973 163.73 20.7973Z" fill="white"/>
<path fill-rule="evenodd" clip-rule="evenodd" d="M102.783 20.7995H67.6982C62.4272 20.7995 58.1445 16.5079 58.1445 11.2259C58.1445 5.94395 62.4272 1.65234 67.6982 1.65234H102.866C108.137 1.65234 112.419 5.94395 112.419 11.2259C112.337 16.5904 108.054 20.7995 102.783 20.7995Z" fill="#00B851"/>
<path d="M102.209 18.0741C105.938 18.0741 108.962 15.0442 108.962 11.3066C108.962 7.56899 105.938 4.53906 102.209 4.53906C98.4787 4.53906 95.4551 7.56899 95.4551 11.3066C95.4551 15.0442 98.4787 18.0741 102.209 18.0741Z" fill="white"/>
<path d="M14.0013 30.0391C7.98909 30.0391 2.88281 33.3403 2.88281 40.1904C2.88281 47.123 7.98909 50.3417 14.0013 50.3417C20.0136 50.3417 25.1198 47.2055 25.1198 40.1904C25.0375 33.3403 20.0136 30.0391 14.0013 30.0391ZM14.0013 45.4723C10.6246 45.4723 8.23617 43.9868 8.23617 40.2729C8.23617 36.4765 10.6246 34.9909 14.0013 34.9909C17.3781 34.9909 19.7665 36.559 19.7665 40.2729C19.7665 43.8217 17.3781 45.4723 14.0013 45.4723ZM39.4504 30.4517C35.8266 30.4517 34.097 31.6071 32.7793 33.4228H32.5322V30.4517H27.0965V50.3417H32.5322V40.7681C32.5322 38.0446 33.2734 35.0734 37.8855 35.0734C43.0742 35.0734 42.7447 38.8699 42.7447 40.438V50.3417H48.0981V40.438C48.0981 37.5494 47.851 30.4517 39.4504 30.4517Z" fill="white"/>
<path d="M67.2877 30.6133L61.5225 45.5514H60.946L55.1808 30.6133H49.498L57.1575 50.3382H65.3934L72.9705 30.6133H67.2877Z" fill="white"/>
<path d="M89.607 33.4242C88.2069 31.6086 85.9832 30.4531 82.3593 30.4531C73.9587 30.4531 73.0527 37.5508 73.0527 40.4394C73.0527 43.1629 74.041 50.4256 82.3593 50.4256C86.1479 50.4256 88.3716 49.3527 89.6893 47.6196H89.9364V50.3431H95.2898V30.4531H89.9364V33.4242H89.607ZM83.9242 45.7214C78.8179 45.7214 78.2414 41.8424 78.2414 40.3568C78.2414 38.7888 78.8179 34.9923 83.9242 34.9923C88.6187 34.9923 89.5246 37.6333 89.5246 40.3568C89.5246 43.4105 88.5363 45.7214 83.9242 45.7214Z" fill="white"/>
<path d="M114.15 30.6133V33.5844H113.82C112.42 31.7687 110.196 30.6133 106.49 30.6133C98.0895 30.6133 97.1836 37.7109 97.1836 40.5995C97.1836 43.3231 98.0895 50.5858 106.49 50.5858C110.196 50.5858 112.502 49.5129 113.82 47.7797H114.067V49.2653C114.067 52.8966 112.42 55.29 108.796 55.29C104.596 55.29 103.608 53.2268 103.525 52.1539H98.1719C98.1719 55.125 99.9015 59.9118 108.796 59.9118C118.679 59.9118 119.421 52.484 119.421 48.44V30.6133H114.15ZM108.137 45.964C102.949 45.964 102.372 42.0851 102.372 40.6821C102.372 39.114 102.949 35.3175 108.137 35.3175C112.832 35.3175 113.738 37.9585 113.738 40.6821C113.738 43.6532 112.75 45.964 108.137 45.964Z" fill="white"/>
<path d="M132.435 30.0391C126.422 30.0391 121.398 33.3403 121.398 40.1904C121.398 47.0404 126.422 50.3417 132.435 50.3417C138.529 50.3417 143.553 47.2055 143.553 40.1904C143.553 33.3403 138.447 30.0391 132.435 30.0391ZM132.435 45.4723C129.058 45.4723 126.669 43.9868 126.669 40.2729C126.669 36.4765 129.058 34.9909 132.435 34.9909C135.811 34.9909 138.282 36.559 138.282 40.2729C138.2 43.8217 135.811 45.4723 132.435 45.4723Z" fill="white"/>
<path d="M157.883 30.4531C154.342 30.4531 152.53 31.6086 151.212 33.4242H150.883V30.4531H145.529V50.3431H150.883V40.7695C150.883 38.046 151.624 35.0749 156.236 35.0749C161.425 35.0749 161.095 38.8713 161.095 40.4394V50.3431H166.449V40.4394C166.531 37.5508 166.366 30.4531 157.883 30.4531Z" fill="white"/>
</g>
<defs>
<clipPath id="clip0_4702_1792">
<rect width="166.531" height="60" fill="white"/>
</clipPath>
</defs>
</svg>
