<svg width="40" height="40" viewBox="0 0 40 40" fill="none" xmlns="http://www.w3.org/2000/svg">
<g id="map-pin-5-fill">
<path id="Vector" d="M28.4855 25.4855L20 33.9711L11.5145 25.4855C9.83634 23.8073 8.69351 21.6691 8.23054 19.3413C7.76756 17.0136 8.00524 14.6008 8.91351 12.4081C9.82178 10.2155 11.3599 8.34136 13.3332 7.02281C15.3066 5.70426 17.6267 5.00049 20 5.00049C22.3734 5.00049 24.6934 5.70426 26.6668 7.02281C28.6402 8.34136 30.1782 10.2155 31.0865 12.4081C31.9948 14.6008 32.2324 17.0136 31.7695 19.3413C31.3065 21.6691 30.1637 23.8073 28.4855 25.4855ZM9.50001 35H30.5V38H9.50001V35Z" fill="#0155E9"/>
</g>
</svg>
