<svg width="255" height="113" viewBox="0 0 255 113" fill="none" xmlns="http://www.w3.org/2000/svg">
<path fill-rule="evenodd" clip-rule="evenodd" d="M250.212 112.273H4.31408C1.84893 112.273 0 110.375 0 108.161V23.7196C0 15.1805 6.77923 8.53905 15.0991 8.53905H19.1049C19.1049 3.79513 23.1108 0 27.4248 0H40.0586C42.5238 0 45.2971 0.316261 47.7622 0.316261H49.6111C49.9192 0.316261 50.2274 0.316261 50.5356 0.632522C67.4834 1.58131 77.6521 4.74392 77.6521 8.85531H91.8267H163.008H177.182C177.182 4.74392 187.043 1.58131 203.991 0.632522C204.299 0.316261 204.607 0.316261 205.223 0.316261H207.072C209.537 0.316261 211.694 0 214.776 0H227.41C232.032 0 235.73 4.1114 235.73 8.53905H239.735C248.055 8.53905 254.526 15.4968 254.526 23.7196V107.845C254.526 110.059 252.677 112.273 250.212 112.273Z" fill="#EFF3F6"/>
<path d="M54.6 63.48V61.88C53.2667 61.88 52.1133 61.64 51.14 61.16C50.18 60.68 49.44 59.9867 48.92 59.08C48.4133 58.1733 48.16 57.0933 48.16 55.84C48.16 53.9333 48.72 52.4533 49.84 51.4C50.9733 50.3333 52.56 49.8 54.6 49.8V48.32H56.68V49.8C58.72 49.8 60.3 50.3333 61.42 51.4C62.5533 52.4533 63.12 53.9333 63.12 55.84C63.12 57.1067 62.86 58.1933 62.34 59.1C61.82 59.9933 61.08 60.68 60.12 61.16C59.16 61.64 58.0133 61.88 56.68 61.88V63.48H54.6ZM56.88 51.42H56.66V60.26H56.88C58.0933 60.26 59.08 59.88 59.84 59.12C60.6 58.3467 60.98 57.2533 60.98 55.84C60.98 54.3867 60.6067 53.2867 59.86 52.54C59.1133 51.7933 58.12 51.42 56.88 51.42ZM54.38 60.26H54.6V51.42H54.38C53.14 51.42 52.1467 51.7933 51.4 52.54C50.6533 53.2867 50.28 54.3867 50.28 55.84C50.28 57.2533 50.66 58.3467 51.42 59.12C52.1933 59.88 53.18 60.26 54.38 60.26ZM72.0256 63.18C70.679 63.18 69.5123 62.8867 68.5256 62.3C67.539 61.7 66.7723 60.86 66.2256 59.78C65.6923 58.6867 65.4256 57.4067 65.4256 55.94C65.4256 54.46 65.6923 53.18 66.2256 52.1C66.7723 51.02 67.539 50.1867 68.5256 49.6C69.5123 49.0133 70.679 48.72 72.0256 48.72C73.359 48.72 74.519 49.0133 75.5056 49.6C76.5056 50.1867 77.2723 51.02 77.8056 52.1C78.3523 53.18 78.6256 54.4533 78.6256 55.92C78.6256 57.4 78.3523 58.6867 77.8056 59.78C77.2723 60.86 76.5056 61.7 75.5056 62.3C74.519 62.8867 73.359 63.18 72.0256 63.18ZM72.0256 61.38C73.4256 61.38 74.5123 60.9067 75.2856 59.96C76.0723 59 76.4656 57.66 76.4656 55.94C76.4656 54.22 76.079 52.8867 75.3056 51.94C74.5323 50.9933 73.439 50.52 72.0256 50.52C70.6256 50.52 69.5323 50.9933 68.7456 51.94C67.9723 52.8867 67.5856 54.22 67.5856 55.94C67.5856 57.66 67.9723 59 68.7456 59.96C69.5323 60.9067 70.6256 61.38 72.0256 61.38ZM83.9745 63V50.64H78.9745V48.9H91.0345V50.64H86.0345V63H83.9745ZM98.0803 63.18C96.7336 63.18 95.567 62.8867 94.5803 62.3C93.5936 61.7 92.827 60.86 92.2803 59.78C91.747 58.6867 91.4803 57.4067 91.4803 55.94C91.4803 54.46 91.747 53.18 92.2803 52.1C92.827 51.02 93.5936 50.1867 94.5803 49.6C95.567 49.0133 96.7336 48.72 98.0803 48.72C99.4136 48.72 100.574 49.0133 101.56 49.6C102.56 50.1867 103.327 51.02 103.86 52.1C104.407 53.18 104.68 54.4533 104.68 55.92C104.68 57.4 104.407 58.6867 103.86 59.78C103.327 60.86 102.56 61.7 101.56 62.3C100.574 62.8867 99.4136 63.18 98.0803 63.18ZM98.0803 61.38C99.4803 61.38 100.567 60.9067 101.34 59.96C102.127 59 102.52 57.66 102.52 55.94C102.52 54.22 102.134 52.8867 101.36 51.94C100.587 50.9933 99.4936 50.52 98.0803 50.52C96.6803 50.52 95.587 50.9933 94.8003 51.94C94.027 52.8867 93.6403 54.22 93.6403 55.94C93.6403 57.66 94.027 59 94.8003 59.96C95.587 60.9067 96.6803 61.38 98.0803 61.38ZM112.722 63V48.9H118.602C120.069 48.9 121.202 49.2267 122.002 49.88C122.815 50.52 123.222 51.42 123.222 52.58C123.222 53.34 123.022 53.9933 122.622 54.54C122.222 55.0867 121.675 55.4867 120.982 55.74C121.795 55.9533 122.429 56.3467 122.882 56.92C123.335 57.4933 123.562 58.22 123.562 59.1C123.562 60.3533 123.142 61.32 122.302 62C121.475 62.6667 120.322 63 118.842 63H112.722ZM114.722 55.06H118.282C120.229 55.06 121.202 54.3 121.202 52.78C121.202 51.26 120.229 50.5 118.282 50.5H114.722V55.06ZM114.722 61.4H118.602C120.562 61.4 121.542 60.6067 121.542 59.02C121.542 57.4467 120.562 56.66 118.602 56.66H114.722V61.4ZM131.609 63V48.9H137.449C138.969 48.9 140.142 49.28 140.969 50.04C141.795 50.7867 142.209 51.84 142.209 53.2C142.209 54.5733 141.795 55.64 140.969 56.4C140.142 57.1467 138.969 57.52 137.449 57.52H133.689V63H131.609ZM133.689 55.86H137.149C139.175 55.86 140.189 54.9733 140.189 53.2C140.189 51.44 139.175 50.56 137.149 50.56H133.689V55.86ZM141.517 63L147.797 48.9H149.517L155.817 63H153.697L152.217 59.56H145.077L143.617 63H141.517ZM148.637 51.2L145.817 57.88H151.517L148.677 51.2H148.637ZM157.663 63V48.9H167.163V50.58H159.663V54.96H163.783C165.263 54.96 166.417 55.3 167.243 55.98C168.083 56.6467 168.503 57.64 168.503 58.96C168.503 60.28 168.083 61.2867 167.243 61.98C166.417 62.66 165.263 63 163.783 63H157.663ZM159.663 61.32H163.543C165.503 61.32 166.483 60.54 166.483 58.98C166.483 57.42 165.503 56.64 163.543 56.64H159.663V61.32ZM177.104 63.18C175.757 63.18 174.59 62.8867 173.604 62.3C172.617 61.7 171.85 60.86 171.304 59.78C170.77 58.6867 170.504 57.4067 170.504 55.94C170.504 54.46 170.77 53.18 171.304 52.1C171.85 51.02 172.617 50.1867 173.604 49.6C174.59 49.0133 175.757 48.72 177.104 48.72C178.437 48.72 179.597 49.0133 180.584 49.6C181.584 50.1867 182.35 51.02 182.884 52.1C183.43 53.18 183.704 54.4533 183.704 55.92C183.704 57.4 183.43 58.6867 182.884 59.78C182.35 60.86 181.584 61.7 180.584 62.3C179.597 62.8867 178.437 63.18 177.104 63.18ZM177.104 61.38C178.504 61.38 179.59 60.9067 180.364 59.96C181.15 59 181.544 57.66 181.544 55.94C181.544 54.22 181.157 52.8867 180.384 51.94C179.61 50.9933 178.517 50.52 177.104 50.52C175.704 50.52 174.61 50.9933 173.824 51.94C173.05 52.8867 172.664 54.22 172.664 55.94C172.664 57.66 173.05 59 173.824 59.96C174.61 60.9067 175.704 61.38 177.104 61.38ZM189.053 63V50.64H184.053V48.9H196.113V50.64H191.113V63H189.053ZM197.839 63V48.9H206.959V50.58H199.839V55H206.539V56.68H199.839V61.32H206.959V63H197.839Z" fill="#C2D2DD"/>
</svg>
