<svg width="72" height="55" viewBox="0 0 72 55" fill="none" xmlns="http://www.w3.org/2000/svg">
<g id="Group 20">
<g id="&#208;&#154;&#208;&#176;&#209;&#130;&#208;&#176;&#208;&#187;&#208;&#190;&#208;&#179;">
<path d="M0.15918 11.6331V2.85273H7.10783V11.6331H5.25205V4.40221H2.02096V11.6331H0.15918Z" fill="black"/>
<path d="M9.32395 11.6331V2.85273H14.3808V4.37819H11.1857V6.30604H14.1586V7.8315H11.1857V10.0957H14.3808V11.6331H9.32395Z" fill="black"/>
<path d="M16.2186 11.6331V2.85273H19.0232C20.0883 2.85273 20.897 3.08295 21.4496 3.54339C22.0061 3.99983 22.2844 4.68248 22.2844 5.59135C22.2844 6.53626 21.9881 7.25895 21.3955 7.75943C20.8069 8.25991 19.9681 8.51015 18.8791 8.51015H18.0803V11.6331H16.2186ZM18.0803 6.98469H18.6929C19.2655 6.98469 19.6939 6.87258 19.9782 6.64836C20.2624 6.42015 20.4046 6.08983 20.4046 5.65742C20.4046 5.221 20.2844 4.89869 20.0442 4.69049C19.808 4.48229 19.4356 4.37819 18.9271 4.37819H18.0803V6.98469Z" fill="black"/>
<path d="M23.9419 11.6331V2.85273H26.6746C27.9198 2.85273 28.8226 3.0309 29.3832 3.38724C29.9477 3.73958 30.23 4.30212 30.23 5.07486C30.23 5.59936 30.1058 6.02977 29.8576 6.36609C29.6134 6.70242 29.2871 6.90461 28.8787 6.97267V7.03273C29.4352 7.15685 29.8356 7.38907 30.0798 7.7294C30.3281 8.06973 30.4522 8.52216 30.4522 9.0867C30.4522 9.88746 30.1619 10.5121 29.5813 10.9605C29.0048 11.4089 28.22 11.6331 27.2271 11.6331H23.9419ZM25.8037 10.0957H27.0169C27.5294 10.0957 27.9077 9.99757 28.152 9.80138C28.3962 9.6052 28.5183 9.30491 28.5183 8.90052C28.5183 8.17182 27.9978 7.80747 26.9568 7.80747H25.8037V10.0957ZM25.8037 6.33006H26.8848C27.3892 6.33006 27.7536 6.25198 27.9778 6.09584C28.206 5.93969 28.3201 5.68144 28.3201 5.32109C28.3201 4.98477 28.196 4.74454 27.9478 4.6004C27.7035 4.45226 27.3152 4.37819 26.7827 4.37819H25.8037V6.33006Z" fill="black"/>
<path d="M32.2059 11.6331V2.85273H34.0676V6.22196H34.6682C35.7933 6.22196 36.6641 6.45618 37.2807 6.92463C37.9013 7.38907 38.2116 8.0437 38.2116 8.88851C38.2116 9.80138 37.9073 10.488 37.2987 10.9485C36.6942 11.4049 35.7973 11.6331 34.6082 11.6331H32.2059ZM34.0676 10.1077H34.5541C35.1667 10.1077 35.6151 10.0076 35.8994 9.80739C36.1837 9.60319 36.3258 9.2969 36.3258 8.88851C36.3258 8.48012 36.1877 8.18784 35.9114 8.01167C35.6391 7.8355 35.1587 7.74742 34.47 7.74742H34.0676V10.1077ZM39.2806 11.6331V2.85273H41.1364V11.6331H39.2806Z" fill="black"/>
<path d="M43.3525 11.6331V2.85273H45.0281V7.09279L45.0041 8.22788L44.944 9.51911H44.9801L49.034 2.85273H51.2621V11.6331H49.6045V7.4171C49.6045 6.85256 49.6405 6.01576 49.7126 4.9067H49.6646L45.5927 11.6331H43.3525ZM44.3855 0H46.0251C46.0531 0.412395 46.1552 0.702673 46.3314 0.870834C46.5115 1.03499 46.8319 1.11707 47.2923 1.11707C47.6967 1.11707 47.997 1.02698 48.1932 0.846811C48.3933 0.662634 48.5155 0.380364 48.5595 0H50.2171C50.141 0.748717 49.8588 1.29524 49.3703 1.63957C48.8818 1.9799 48.1771 2.15006 47.2563 2.15006C46.3074 2.15006 45.6047 1.9859 45.1482 1.65759C44.6958 1.32927 44.4416 0.776744 44.3855 0Z" fill="black"/>
</g>
<g id="&#208;&#154;&#208;&#176;&#209;&#130;&#208;&#176;&#208;&#187;&#208;&#190;&#208;&#179;_2">
<path d="M0 52.442L3.09897 43.6255H5.37514L8.48612 52.442H6.4802L5.84359 50.352H2.64253L2.00592 52.442H0ZM3.11098 48.7905H5.39917C4.8106 46.8967 4.47829 45.8256 4.40221 45.5774C4.33014 45.3292 4.2781 45.133 4.24606 44.9888C4.11394 45.5013 3.73558 46.7685 3.11098 48.7905Z" fill="black"/>
<path d="M8.61224 43.6616H10.5821L12.7502 48.5563H12.8103C12.8703 48.332 13.0064 47.9737 13.2187 47.4812L14.7261 43.6616H16.6479L13.9273 49.8715C13.587 50.6483 13.2687 51.2088 12.9724 51.5531C12.6761 51.8934 12.3238 52.1477 11.9154 52.3159C11.511 52.48 11.0145 52.5621 10.426 52.5621C9.9215 52.5621 9.45305 52.502 9.02063 52.3819V50.7844C9.38098 50.9285 9.8194 51.0006 10.3359 51.0006C10.6602 51.0006 10.9245 50.9265 11.1287 50.7784C11.3328 50.6302 11.507 50.36 11.6512 49.9676L8.61224 43.6616Z" fill="black"/>
<path d="M17.753 52.442V43.6616H19.6148V47.9136L22.7618 43.6616H24.7437L21.5426 47.8776L24.9118 52.442H22.7978L19.6148 47.9917V52.442H17.753Z" fill="black"/>
<path d="M26.0169 52.442V43.6616H27.8787V50.8925H31.1098V43.6616H32.9656V50.9646H34.2748V55.0004H32.4791V52.442H26.0169Z" fill="black"/>
<path d="M35.6261 52.442V43.6616H37.3017V47.9016L37.2777 49.0367L37.2176 50.328H37.2537L41.3075 43.6616H43.5357V52.442H41.8781V48.2259C41.8781 47.6614 41.9141 46.8246 41.9862 45.7155H41.9381L37.8662 52.442H35.6261Z" fill="black"/>
<path d="M45.3614 48.0277C45.3614 46.5664 45.7218 45.4513 46.4425 44.6825C47.1671 43.9098 48.2041 43.5234 49.5534 43.5234C50.9027 43.5234 51.9337 43.9118 52.6464 44.6886C53.3631 45.4653 53.7214 46.5824 53.7214 48.0398C53.7214 49.4932 53.3611 50.6102 52.6404 51.391C51.9197 52.1717 50.8867 52.5621 49.5414 52.5621C48.1961 52.5621 47.1631 52.1717 46.4425 51.391C45.7218 50.6102 45.3614 49.4891 45.3614 48.0277ZM47.3133 48.0398C47.3133 49.0207 47.4995 49.7594 47.8718 50.2559C48.2442 50.7524 48.8007 51.0006 49.5414 51.0006C51.0268 51.0006 51.7696 50.0136 51.7696 48.0398C51.7696 46.0619 51.0308 45.0729 49.5534 45.0729C48.8127 45.0729 48.2542 45.3232 47.8778 45.8236C47.5015 46.3201 47.3133 47.0588 47.3133 48.0398Z" fill="black"/>
<path d="M55.5412 52.442V43.6616H57.4029V47.1029H60.8803V43.6616H62.736V52.442H60.8803V48.6523H57.4029V52.442H55.5412Z" fill="black"/>
</g>
<g id="&#208;&#178;&#208;&#176;&#208;&#179;&#208;&#190;&#208;&#189;&#208;&#189;&#209;&#139;&#208;&#185;">
<path d="M0 31.386V22.9042H2.75887C4.01602 22.9042 4.92756 23.0763 5.49348 23.4205C6.06344 23.7609 6.34842 24.3043 6.34842 25.0507C6.34842 25.5574 6.22311 25.9732 5.97249 26.2981C5.72591 26.623 5.39646 26.8183 4.98415 26.884V26.9421C5.54603 27.062 5.95026 27.2863 6.19684 27.615C6.44746 27.9438 6.57277 28.3808 6.57277 28.9262C6.57277 29.6997 6.27971 30.3031 5.69357 30.7363C5.11148 31.1695 4.31919 31.386 3.3167 31.386H0ZM1.87967 29.9008H3.10448C3.6219 29.9008 4.00389 29.8061 4.25047 29.6166C4.49705 29.4271 4.62034 29.137 4.62034 28.7463C4.62034 28.0424 4.09484 27.6905 3.04385 27.6905H1.87967V29.9008ZM1.87967 26.2633H2.97109C3.48042 26.2633 3.84826 26.1879 4.07463 26.037C4.30504 25.8862 4.42025 25.6367 4.42025 25.2886C4.42025 24.9637 4.29494 24.7317 4.04432 24.5924C3.79774 24.4493 3.40563 24.3778 2.86801 24.3778H1.87967V26.2633Z" fill="black"/>
<path d="M7.22762 31.386L10.3564 22.8694H12.6544L15.7953 31.386H13.7701L13.1274 29.3671H9.89554L9.25281 31.386H7.22762ZM10.3685 27.8587H12.6787C12.0844 26.0293 11.7489 24.9947 11.6721 24.7549C11.5994 24.5151 11.5468 24.3256 11.5145 24.1863C11.3811 24.6814 10.9991 25.9055 10.3685 27.8587Z" fill="black"/>
<path d="M16.917 31.386V22.9042H22.5196V24.3894H18.7967V31.386H16.917Z" fill="black"/>
<path d="M23.3746 27.1219C23.3746 25.7102 23.7384 24.633 24.466 23.8904C25.1976 23.144 26.2446 22.7707 27.6069 22.7707C28.9691 22.7707 30.01 23.1459 30.7295 23.8962C31.4531 24.6466 31.8149 25.7257 31.8149 27.1335C31.8149 28.5375 31.4511 29.6166 30.7235 30.3708C29.9958 31.125 28.9529 31.5021 27.5947 31.5021C26.2365 31.5021 25.1936 31.125 24.466 30.3708C23.7384 29.6166 23.3746 28.5336 23.3746 27.1219ZM25.3452 27.1335C25.3452 28.0811 25.5332 28.7947 25.9091 29.2743C26.285 29.7539 26.8469 29.9937 27.5947 29.9937C29.0944 29.9937 29.8443 29.0403 29.8443 27.1335C29.8443 25.2229 29.0985 24.2675 27.6069 24.2675C26.859 24.2675 26.2951 24.5093 25.9152 24.9927C25.5352 25.4723 25.3452 26.1859 25.3452 27.1335Z" fill="black"/>
<path d="M33.6521 31.386V22.9042H35.5318V26.2285H39.0425V22.9042H40.9161V31.386H39.0425V27.7253H35.5318V31.386H33.6521Z" fill="black"/>
<path d="M43.1596 31.386V22.9042H45.0392V26.2285H48.55V22.9042H50.4236V31.386H48.55V27.7253H45.0392V31.386H43.1596Z" fill="black"/>
<path d="M52.6671 31.386V22.9042H54.5467V26.1588H55.1531C56.289 26.1588 57.1682 26.3851 57.7907 26.8376C58.4172 27.2863 58.7305 27.9186 58.7305 28.7347C58.7305 29.6166 58.4233 30.2799 57.8089 30.7247C57.1985 31.1656 56.293 31.386 55.0924 31.386H52.6671ZM54.5467 29.9124H55.0379C55.6563 29.9124 56.1091 29.8158 56.3961 29.6224C56.6831 29.4251 56.8266 29.1292 56.8266 28.7347C56.8266 28.3402 56.6871 28.0579 56.4082 27.8877C56.1333 27.7175 55.6483 27.6324 54.953 27.6324H54.5467V29.9124ZM59.8098 31.386V22.9042H61.6834V31.386H59.8098Z" fill="black"/>
<path d="M63.9208 31.386V22.9042H65.6125V27.0001L65.5883 28.0966L65.5276 29.3439H65.564L69.6568 22.9042H71.9064V31.386H70.2328V27.3134C70.2328 26.768 70.2692 25.9597 70.342 24.8883H70.2935L66.1825 31.386H63.9208ZM64.9637 20.1484H66.619C66.6473 20.5468 66.7504 20.8272 66.9283 20.9897C67.1102 21.1482 67.4336 21.2275 67.8984 21.2275C68.3067 21.2275 68.6099 21.1405 68.8079 20.9665C69.0101 20.7885 69.1334 20.5159 69.1778 20.1484H70.8513C70.7745 20.8717 70.4895 21.3996 69.9964 21.7323C69.5032 22.061 68.7918 22.2254 67.862 22.2254C66.904 22.2254 66.1946 22.0668 65.7338 21.7497C65.277 21.4325 65.0203 20.8988 64.9637 20.1484Z" fill="black"/>
</g>
</g>
</svg>
