<svg width="0" height="0" class="hidden">
  <symbol fill="none" xmlns="http://www.w3.org/2000/svg" viewBox="0 0 20 20" id="ic_account">
    <path d="M15.1022 7.36975C15.8463 7.7321 16.6889 7.83937 17.5 7.675V16C17.5 16.1989 17.421 16.3897 17.2803 16.5303C17.1397 16.671 16.9489 16.75 16.75 16.75H3.25C3.05109 16.75 2.86032 16.671 2.71967 16.5303C2.57902 16.3897 2.5 16.1989 2.5 16V4C2.5 3.80109 2.57902 3.61032 2.71967 3.46967C2.86032 3.32902 3.05109 3.25 3.25 3.25H13.075C13.0255 3.49225 13 3.7435 13 4C12.9988 4.89104 13.3161 5.75317 13.8948 6.43075L10.0457 9.76225L5.23525 5.6785L4.26475 6.8215L10.0547 11.7378L15.1022 7.36975ZM16.75 6.25C16.4545 6.25 16.1619 6.1918 15.889 6.07873C15.616 5.96566 15.3679 5.79992 15.159 5.59099C14.9501 5.38206 14.7843 5.13402 14.6713 4.86104C14.5582 4.58806 14.5 4.29547 14.5 4C14.5 3.70453 14.5582 3.41194 14.6713 3.13896C14.7843 2.86598 14.9501 2.61794 15.159 2.40901C15.3679 2.20008 15.616 2.03434 15.889 1.92127C16.1619 1.8082 16.4545 1.75 16.75 1.75C17.3467 1.75 17.919 1.98705 18.341 2.40901C18.7629 2.83097 19 3.40326 19 4C19 4.59674 18.7629 5.16903 18.341 5.59099C17.919 6.01295 17.3467 6.25 16.75 6.25Z" fill="currentColor"></path>
  </symbol>
  <symbol fill="none" xmlns="http://www.w3.org/2000/svg" viewBox="0 0 30 30" id="ic_add_file">
    <path d="M15.4657 7.125H25.125C25.4234 7.125 25.7095 7.24353 25.9205 7.45451C26.1315 7.66548 26.25 7.95163 26.25 8.25V24C26.25 24.2984 26.1315 24.5845 25.9205 24.7955C25.7095 25.0065 25.4234 25.125 25.125 25.125H4.875C4.57663 25.125 4.29048 25.0065 4.0795 24.7955C3.86853 24.5845 3.75 24.2984 3.75 24V6C3.75 5.70163 3.86853 5.41548 4.0795 5.2045C4.29048 4.99353 4.57663 4.875 4.875 4.875H13.2157L15.4657 7.125ZM6 7.125V22.875H24V9.375H14.5343L12.2843 7.125H6ZM13.875 15V11.625H16.125V15H19.5V17.25H16.125V20.625H13.875V17.25H10.5V15H13.875Z" fill="currentColor"></path>
  </symbol>
  <symbol fill="none" xmlns="http://www.w3.org/2000/svg" viewBox="0 0 12 6" id="ic_arr_ver">
    <path d="M12 0.835968L11.0281 0L6 4.32213L0.971855 0L0 0.835968L6 6L12 0.835968Z" fill="currentColor"></path>
  </symbol>
  <symbol fill="none" xmlns="http://www.w3.org/2000/svg" viewBox="0 0 24 24" id="ic_arr_ver2">
    <path d="M12.0001 13.0549L16.4551 8.59985L17.7277 9.87245L12.0001 15.6001L6.27246 9.87245L7.54506 8.59985L12.0001 13.0549Z" fill="currentColor"></path>
  </symbol>
  <symbol fill="none" xmlns="http://www.w3.org/2000/svg" viewBox="0 0 15 14" id="ic_arrow_hor">
    <path d="M11.5544 6.1002L6.72681 1.2726L7.99941 0L14.9996 7.0002L7.99941 14.0004L6.72681 12.7278L11.5544 7.9002H0.599609V6.1002H11.5544Z" fill="currentColor"></path>
  </symbol>
  <symbol fill="none" xmlns="http://www.w3.org/2000/svg" viewBox="0 0 25 16" id="ic_arrow_hor2">
    <path d="M17.4998 8.90005H0.299805V7.10005H17.4998V0.800049L24.6998 8.00005L17.4998 15.2V8.90005Z" fill="currentColor"></path>
  </symbol>
  <symbol fill="none" xmlns="http://www.w3.org/2000/svg" viewBox="0 0 17 12" id="ic_check">
    <path d="M6.47229 9.24807L15.1384 0.581055L16.4724 1.91415L6.47229 11.9143L0.472412 5.91439L1.80551 4.58129L6.47229 9.24807Z" fill="currentColor"></path>
  </symbol>
  <symbol fill="none" xmlns="http://www.w3.org/2000/svg" viewBox="0 0 20 20" id="ic_delete">
    <path d="M10 17.5C5.85775 17.5 2.5 14.1423 2.5 10C2.5 5.85775 5.85775 2.5 10 2.5C14.1423 2.5 17.5 5.85775 17.5 10C17.5 14.1423 14.1423 17.5 10 17.5ZM10 16C11.5913 16 13.1174 15.3679 14.2426 14.2426C15.3679 13.1174 16 11.5913 16 10C16 8.4087 15.3679 6.88258 14.2426 5.75736C13.1174 4.63214 11.5913 4 10 4C8.4087 4 6.88258 4.63214 5.75736 5.75736C4.63214 6.88258 4 8.4087 4 10C4 11.5913 4.63214 13.1174 5.75736 14.2426C6.88258 15.3679 8.4087 16 10 16ZM10 8.9395L12.121 6.81775L13.1823 7.879L11.0605 10L13.1823 12.121L12.121 13.1823L10 11.0605L7.879 13.1823L6.81775 12.121L8.9395 10L6.81775 7.879L7.879 6.81775L10 8.9395Z" fill="currentColor"></path>
  </symbol>
  <symbol fill="none" xmlns="http://www.w3.org/2000/svg" viewBox="0 0 18 16" id="ic_email">
    <path d="M0.9 0.5H17.1C17.3387 0.5 17.5676 0.594821 17.7364 0.763604C17.9052 0.932387 18 1.16131 18 1.4V14.6C18 14.8387 17.9052 15.0676 17.7364 15.2364C17.5676 15.4052 17.3387 15.5 17.1 15.5H0.9C0.661305 15.5 0.432387 15.4052 0.263604 15.2364C0.0948211 15.0676 0 14.8387 0 14.6V1.4C0 1.16131 0.0948211 0.932387 0.263604 0.763604C0.432387 0.594821 0.661305 0.5 0.9 0.5ZM16.2 4.3142L9.0648 10.7042L1.8 4.2944V13.7H16.2V4.3142ZM2.2599 2.3L9.0549 8.2958L15.7518 2.3H2.2599Z" fill="currentColor"></path>
  </symbol>
  <symbol fill="none" xmlns="http://www.w3.org/2000/svg" viewBox="0 0 24 24" id="ic_eye">
    <path d="M12 3.8999C16.8528 3.8999 20.8902 7.3919 21.7371 11.9999C20.8911 16.6079 16.8528 20.0999 12 20.0999C7.14721 20.0999 3.10981 16.6079 2.26291 11.9999C3.10891 7.3919 7.14721 3.8999 12 3.8999ZM12 18.2999C13.8355 18.2995 15.6166 17.676 17.0516 16.5316C18.4866 15.3871 19.4906 13.7893 19.8993 11.9999C19.4891 10.2119 18.4845 8.61591 17.0496 7.47293C15.6147 6.32995 13.8345 5.70758 12 5.70758C10.1655 5.70758 8.38533 6.32995 6.95045 7.47293C5.51556 8.61591 4.5109 10.2119 4.10071 11.9999C4.5094 13.7893 5.51342 15.3871 6.94844 16.5316C8.38346 17.676 10.1645 18.2995 12 18.2999ZM12 16.0499C10.9259 16.0499 9.89575 15.6232 9.13623 14.8637C8.37671 14.1042 7.95001 13.074 7.95001 11.9999C7.95001 10.9258 8.37671 9.89564 9.13623 9.13612C9.89575 8.3766 10.9259 7.9499 12 7.9499C13.0741 7.9499 14.1043 8.3766 14.8638 9.13612C15.6233 9.89564 16.05 10.9258 16.05 11.9999C16.05 13.074 15.6233 14.1042 14.8638 14.8637C14.1043 15.6232 13.0741 16.0499 12 16.0499ZM12 14.2499C12.5967 14.2499 13.169 14.0128 13.591 13.5909C14.013 13.1689 14.25 12.5966 14.25 11.9999C14.25 11.4032 14.013 10.8309 13.591 10.4089C13.169 9.98696 12.5967 9.7499 12 9.7499C11.4033 9.7499 10.831 9.98696 10.409 10.4089C9.98706 10.8309 9.75001 11.4032 9.75001 11.9999C9.75001 12.5966 9.98706 13.1689 10.409 13.5909C10.831 14.0128 11.4033 14.2499 12 14.2499Z" fill="currentColor"></path>
  </symbol>
  <symbol fill="none" xmlns="http://www.w3.org/2000/svg" viewBox="0 0 30 30" id="ic_pdf">
    <path d="M8.4375 7.5H17.8125V11.25H21.5625V22.5H8.4375V7.5ZM7.49859 5.625C6.98202 5.625 6.5625 6.0413 6.5625 6.55481V23.4452C6.5625 23.9482 6.97946 24.375 7.49381 24.375H22.5062C23.0204 24.375 23.4375 23.9521 23.4375 23.4305L23.4372 10.3125L18.75 5.625H7.49859ZM13.5937 10.7812C13.5937 12.2601 13.1664 14.0037 12.4452 15.6126C11.7214 17.2272 10.7451 18.6096 9.72679 19.4242L10.8325 20.9363C13.577 19.1066 16.6156 17.852 19.5548 18.2719L19.9839 16.4543C17.4783 15.6191 15.4687 13.1156 15.4687 10.7812H13.5937ZM14.1562 16.3796C14.4068 15.8205 14.6289 15.2403 14.816 14.6517C15.2581 15.331 15.8018 15.9546 16.4157 16.4956C15.4953 16.6604 14.5936 16.9309 13.7205 17.2759C13.8749 16.9822 14.0204 16.6826 14.1562 16.3796Z" fill="currentColor"></path>
  </symbol>
  <symbol fill="none" xmlns="http://www.w3.org/2000/svg" viewBox="0 0 30 30" id="ic_search">
    <path d="M19.7444 19.7638L26.25 26.25M22.5 13.125C22.5 18.3027 18.3027 22.5 13.125 22.5C7.94733 22.5 3.75 18.3027 3.75 13.125C3.75 7.94733 7.94733 3.75 13.125 3.75C18.3027 3.75 22.5 7.94733 22.5 13.125Z" stroke="currentColor" stroke-width="2" stroke-linecap="round" stroke-linejoin="round"></path>
  </symbol>
  <symbol fill="none" xmlns="http://www.w3.org/2000/svg" viewBox="0 0 18 17" id="ic_time">
    <path d="M8.52065 16.5C7.53844 16.5 6.56586 16.3065 5.65842 15.9307C4.75098 15.5548 3.92647 15.0039 3.23194 14.3093C2.53742 13.6148 1.9865 12.7903 1.61062 11.8829C1.23475 10.9754 1.04129 10.0028 1.04129 9.02065C1.04129 8.03844 1.23475 7.06586 1.61062 6.15842C1.9865 5.25098 2.53742 4.42647 3.23194 3.73194C3.92647 3.03742 4.75098 2.4865 5.65842 2.11062C6.56586 1.73475 7.53844 1.54129 8.52065 1.54129C10.5043 1.54129 12.4067 2.32929 13.8093 3.73194C15.212 5.13459 16 7.037 16 9.02065C16 11.0043 15.212 12.9067 13.8093 14.3093C12.4067 15.712 10.5043 16.5 8.52065 16.5ZM8.52065 14.8379C9.28458 14.8379 10.041 14.6875 10.7468 14.3951C11.4526 14.1028 12.0939 13.6743 12.6341 13.1341C13.1743 12.5939 13.6028 11.9526 13.8951 11.2468C14.1875 10.541 14.3379 9.78458 14.3379 9.02065C14.3379 8.25671 14.1875 7.50026 13.8951 6.79447C13.6028 6.08869 13.1743 5.4474 12.6341 4.90721C12.0939 4.36703 11.4526 3.93853 10.7468 3.64618C10.041 3.35384 9.28458 3.20337 8.52065 3.20337C6.97781 3.20337 5.49816 3.81626 4.40721 4.90721C3.31626 5.99816 2.70337 7.47781 2.70337 9.02065C2.70337 10.5635 3.31626 12.0431 4.40721 13.1341C5.49816 14.225 6.97781 14.8379 8.52065 14.8379ZM9.35168 9.02065H11.8448V10.6827H7.68961V4.86545H9.35168V9.02065ZM0 3.43772L2.93772 0.5L4.11364 1.67509L1.17426 4.61364L0 3.43772ZM14.1027 0.5L17.0413 3.43772L15.8662 4.61364L12.9276 1.67509L14.1036 0.5H14.1027Z" fill="currentColor"></path>
  </symbol>
  <symbol fill="none" xmlns="http://www.w3.org/2000/svg" viewBox="0 0 24 24" id="ic_user">
    <path d="M4.7998 21.0001C4.7998 19.0905 5.55837 17.2592 6.90864 15.9089C8.2589 14.5587 10.0902 13.8001 11.9998 13.8001C13.9094 13.8001 15.7407 14.5587 17.091 15.9089C18.4412 17.2592 19.1998 19.0905 19.1998 21.0001H4.7998ZM12.8998 15.6748V19.2001H17.0929C16.7712 18.2924 16.2129 17.487 15.4757 16.8673C14.7386 16.2475 13.8493 15.8358 12.8998 15.6748ZM11.0998 19.2001V15.6748C10.1503 15.8358 9.26102 16.2475 8.52387 16.8673C7.78672 17.487 7.22843 18.2924 6.9067 19.2001H11.0998ZM11.9998 12.9001C9.0163 12.9001 6.5998 10.4836 6.5998 7.5001C6.5998 4.5166 9.0163 2.1001 11.9998 2.1001C14.9833 2.1001 17.3998 4.5166 17.3998 7.5001C17.3998 10.4836 14.9833 12.9001 11.9998 12.9001ZM11.9998 11.1001C13.9888 11.1001 15.5998 9.4891 15.5998 7.5001C15.5998 5.5111 13.9888 3.9001 11.9998 3.9001C10.0108 3.9001 8.3998 5.5111 8.3998 7.5001C8.3998 9.4891 10.0108 11.1001 11.9998 11.1001Z" fill="currentColor"></path>
  </symbol>
</svg>