<svg width="0" height="0" class="hidden">
  <symbol fill="none" xmlns="http://www.w3.org/2000/svg" viewBox="0 0 20 20" id="ic_account">
    <path d="M15.1022 7.36975C15.8463 7.7321 16.6889 7.83937 17.5 7.675V16C17.5 16.1989 17.421 16.3897 17.2803 16.5303C17.1397 16.671 16.9489 16.75 16.75 16.75H3.25C3.05109 16.75 2.86032 16.671 2.71967 16.5303C2.57902 16.3897 2.5 16.1989 2.5 16V4C2.5 3.80109 2.57902 3.61032 2.71967 3.46967C2.86032 3.32902 3.05109 3.25 3.25 3.25H13.075C13.0255 3.49225 13 3.7435 13 4C12.9988 4.89104 13.3161 5.75317 13.8948 6.43075L10.0457 9.76225L5.23525 5.6785L4.26475 6.8215L10.0547 11.7378L15.1022 7.36975ZM16.75 6.25C16.4545 6.25 16.1619 6.1918 15.889 6.07873C15.616 5.96566 15.3679 5.79992 15.159 5.59099C14.9501 5.38206 14.7843 5.13402 14.6713 4.86104C14.5582 4.58806 14.5 4.29547 14.5 4C14.5 3.70453 14.5582 3.41194 14.6713 3.13896C14.7843 2.86598 14.9501 2.61794 15.159 2.40901C15.3679 2.20008 15.616 2.03434 15.889 1.92127C16.1619 1.8082 16.4545 1.75 16.75 1.75C17.3467 1.75 17.919 1.98705 18.341 2.40901C18.7629 2.83097 19 3.40326 19 4C19 4.59674 18.7629 5.16903 18.341 5.59099C17.919 6.01295 17.3467 6.25 16.75 6.25Z" fill="currentColor"></path>
  </symbol>
  <symbol fill="none" xmlns="http://www.w3.org/2000/svg" viewBox="0 0 30 30" id="ic_add_file">
    <path d="M15.4657 7.125H25.125C25.4234 7.125 25.7095 7.24353 25.9205 7.45451C26.1315 7.66548 26.25 7.95163 26.25 8.25V24C26.25 24.2984 26.1315 24.5845 25.9205 24.7955C25.7095 25.0065 25.4234 25.125 25.125 25.125H4.875C4.57663 25.125 4.29048 25.0065 4.0795 24.7955C3.86853 24.5845 3.75 24.2984 3.75 24V6C3.75 5.70163 3.86853 5.41548 4.0795 5.2045C4.29048 4.99353 4.57663 4.875 4.875 4.875H13.2157L15.4657 7.125ZM6 7.125V22.875H24V9.375H14.5343L12.2843 7.125H6ZM13.875 15V11.625H16.125V15H19.5V17.25H16.125V20.625H13.875V17.25H10.5V15H13.875Z" fill="currentColor"></path>
  </symbol>
  <symbol fill="none" xmlns="http://www.w3.org/2000/svg" viewBox="0 0 12 6" id="ic_arr_ver">
    <path d="M12 0.835968L11.0281 0L6 4.32213L0.971855 0L0 0.835968L6 6L12 0.835968Z" fill="currentColor"></path>
  </symbol>
  <symbol fill="none" xmlns="http://www.w3.org/2000/svg" viewBox="0 0 24 24" id="ic_arr_ver2">
    <path d="M12.0001 13.0549L16.4551 8.59985L17.7277 9.87245L12.0001 15.6001L6.27246 9.87245L7.54506 8.59985L12.0001 13.0549Z" fill="currentColor"></path>
  </symbol>
  <symbol fill="none" xmlns="http://www.w3.org/2000/svg" viewBox="0 0 15 14" id="ic_arrow_hor">
    <path d="M11.5544 6.1002L6.72681 1.2726L7.99941 0L14.9996 7.0002L7.99941 14.0004L6.72681 12.7278L11.5544 7.9002H0.599609V6.1002H11.5544Z" fill="currentColor"></path>
  </symbol>
  <symbol fill="none" xmlns="http://www.w3.org/2000/svg" viewBox="0 0 25 16" id="ic_arrow_hor2">
    <path d="M17.4998 8.90005H0.299805V7.10005H17.4998V0.800049L24.6998 8.00005L17.4998 15.2V8.90005Z" fill="currentColor"></path>
  </symbol>
  <symbol fill="none" xmlns="http://www.w3.org/2000/svg" viewBox="0 0 30 31" id="ic_arrs_ver">
    <path d="M14.9999 7.61755L8.53418 14.0832L10.0073 15.5565L14.9999 10.5638L19.9925 15.5565L21.4657 14.0832L14.9999 7.61755ZM14.9999 13.5028L8.53418 19.9686L10.0073 21.4418L14.9999 16.4492L19.9925 21.4418L21.4657 19.9686L14.9999 13.5028Z" fill="currentColor"></path>
  </symbol>
  <symbol fill="none" xmlns="http://www.w3.org/2000/svg" viewBox="0 0 26 26" id="ic_auction">
    <path d="M14.875 20.4999V22.3749H3.625V20.4999H14.875ZM15.4244 2.39307L22.7162 9.68494L21.3906 11.0124L20.3969 10.6806L18.0747 12.9999L23.3781 18.3034L22.0525 19.629L16.75 14.3256L14.4963 16.5793L14.7616 17.6406L13.435 18.9662L6.14312 11.6743L7.46969 10.3487L8.52906 10.6131L14.4297 4.71338L14.0988 3.71963L15.4244 2.39307ZM16.0872 5.70807L9.45813 12.3362L12.7722 15.6512L19.4012 9.02307L16.0872 5.70807Z" fill="currentColor"></path>
  </symbol>
  <symbol fill="none" xmlns="http://www.w3.org/2000/svg" viewBox="0 0 24 24" id="ic_calendar">
    <path d="M18 2.4H22.8C23.1183 2.4 23.4235 2.52643 23.6485 2.75147C23.8736 2.97652 24 3.28174 24 3.6V22.8C24 23.1183 23.8736 23.4235 23.6485 23.6485C23.4235 23.8736 23.1183 24 22.8 24H1.2C0.88174 24 0.576515 23.8736 0.351472 23.6485C0.126428 23.4235 0 23.1183 0 22.8V3.6C0 3.28174 0.126428 2.97652 0.351472 2.75147C0.576515 2.52643 0.88174 2.4 1.2 2.4H6V0H8.4V2.4H15.6V0H18V2.4ZM21.6 9.6V4.8H18V7.2H15.6V4.8H8.4V7.2H6V4.8H2.4V9.6H21.6ZM21.6 12H2.4V21.6H21.6V12ZM4.8 14.4H10.8V19.2H4.8V14.4Z" fill="currentColor"></path>
  </symbol>
  <symbol fill="none" xmlns="http://www.w3.org/2000/svg" viewBox="0 0 17 12" id="ic_check">
    <path d="M6.47229 9.24807L15.1384 0.581055L16.4724 1.91415L6.47229 11.9143L0.472412 5.91439L1.80551 4.58129L6.47229 9.24807Z" fill="currentColor"></path>
  </symbol>
  <symbol fill="none" xmlns="http://www.w3.org/2000/svg" viewBox="0 0 30 31" id="ic_close">
    <path d="M14.3597 12.8488L19.9284 7.28003L21.5192 8.87078L15.9504 14.4395L21.5192 20.0083L19.9284 21.599L14.3597 16.0303L8.79095 21.599L7.2002 20.0083L12.7689 14.4395L7.2002 8.87078L8.79095 7.28003L14.3597 12.8488Z" fill="currentColor"></path>
  </symbol>
  <symbol fill="none" xmlns="http://www.w3.org/2000/svg" viewBox="0 0 17 17" id="ic_delete2">
    <path d="M8.5 6.7225L14.7225 0.5L16.5 2.2775L10.2775 8.5L16.5 14.7225L14.7225 16.5L8.5 10.2775L2.2775 16.5L0.5 14.7225L6.7225 8.5L0.5 2.2775L2.2775 0.5L8.5 6.7225Z" fill="currentColor"></path>
  </symbol>
  <symbol fill="none" xmlns="http://www.w3.org/2000/svg" viewBox="0 0 20 20" id="ic_delete">
    <path d="M10 17.5C5.85775 17.5 2.5 14.1423 2.5 10C2.5 5.85775 5.85775 2.5 10 2.5C14.1423 2.5 17.5 5.85775 17.5 10C17.5 14.1423 14.1423 17.5 10 17.5ZM10 16C11.5913 16 13.1174 15.3679 14.2426 14.2426C15.3679 13.1174 16 11.5913 16 10C16 8.4087 15.3679 6.88258 14.2426 5.75736C13.1174 4.63214 11.5913 4 10 4C8.4087 4 6.88258 4.63214 5.75736 5.75736C4.63214 6.88258 4 8.4087 4 10C4 11.5913 4.63214 13.1174 5.75736 14.2426C6.88258 15.3679 8.4087 16 10 16ZM10 8.9395L12.121 6.81775L13.1823 7.879L11.0605 10L13.1823 12.121L12.121 13.1823L10 11.0605L7.879 13.1823L6.81775 12.121L8.9395 10L6.81775 7.879L7.879 6.81775L10 8.9395Z" fill="currentColor"></path>
  </symbol>
  <symbol fill="none" xmlns="http://www.w3.org/2000/svg" viewBox="0 0 30 31" id="ic_download">
    <path d="M15.4657 7.9707H25.125C25.4234 7.9707 25.7095 8.08923 25.9205 8.30021C26.1315 8.51119 26.25 8.79733 26.25 9.0957V24.8457C26.25 25.1441 26.1315 25.4302 25.9205 25.6412C25.7095 25.8522 25.4234 25.9707 25.125 25.9707H4.875C4.57663 25.9707 4.29048 25.8522 4.0795 25.6412C3.86853 25.4302 3.75 25.1441 3.75 24.8457V6.8457C3.75 6.54733 3.86853 6.26119 4.0795 6.05021C4.29048 5.83923 4.57663 5.7207 4.875 5.7207H13.2157L15.4657 7.9707ZM16.125 16.9707V12.4707H13.875V16.9707H10.5L15 21.4707L19.5 16.9707H16.125Z" fill="currentColor"></path>
  </symbol>
  <symbol fill="none" xmlns="http://www.w3.org/2000/svg" viewBox="0 0 18 16" id="ic_email">
    <path d="M0.9 0.5H17.1C17.3387 0.5 17.5676 0.594821 17.7364 0.763604C17.9052 0.932387 18 1.16131 18 1.4V14.6C18 14.8387 17.9052 15.0676 17.7364 15.2364C17.5676 15.4052 17.3387 15.5 17.1 15.5H0.9C0.661305 15.5 0.432387 15.4052 0.263604 15.2364C0.0948211 15.0676 0 14.8387 0 14.6V1.4C0 1.16131 0.0948211 0.932387 0.263604 0.763604C0.432387 0.594821 0.661305 0.5 0.9 0.5ZM16.2 4.3142L9.0648 10.7042L1.8 4.2944V13.7H16.2V4.3142ZM2.2599 2.3L9.0549 8.2958L15.7518 2.3H2.2599Z" fill="currentColor"></path>
  </symbol>
  <symbol fill="none" xmlns="http://www.w3.org/2000/svg" viewBox="0 0 24 24" id="ic_eye">
    <path d="M12 3.8999C16.8528 3.8999 20.8902 7.3919 21.7371 11.9999C20.8911 16.6079 16.8528 20.0999 12 20.0999C7.14721 20.0999 3.10981 16.6079 2.26291 11.9999C3.10891 7.3919 7.14721 3.8999 12 3.8999ZM12 18.2999C13.8355 18.2995 15.6166 17.676 17.0516 16.5316C18.4866 15.3871 19.4906 13.7893 19.8993 11.9999C19.4891 10.2119 18.4845 8.61591 17.0496 7.47293C15.6147 6.32995 13.8345 5.70758 12 5.70758C10.1655 5.70758 8.38533 6.32995 6.95045 7.47293C5.51556 8.61591 4.5109 10.2119 4.10071 11.9999C4.5094 13.7893 5.51342 15.3871 6.94844 16.5316C8.38346 17.676 10.1645 18.2995 12 18.2999ZM12 16.0499C10.9259 16.0499 9.89575 15.6232 9.13623 14.8637C8.37671 14.1042 7.95001 13.074 7.95001 11.9999C7.95001 10.9258 8.37671 9.89564 9.13623 9.13612C9.89575 8.3766 10.9259 7.9499 12 7.9499C13.0741 7.9499 14.1043 8.3766 14.8638 9.13612C15.6233 9.89564 16.05 10.9258 16.05 11.9999C16.05 13.074 15.6233 14.1042 14.8638 14.8637C14.1043 15.6232 13.0741 16.0499 12 16.0499ZM12 14.2499C12.5967 14.2499 13.169 14.0128 13.591 13.5909C14.013 13.1689 14.25 12.5966 14.25 11.9999C14.25 11.4032 14.013 10.8309 13.591 10.4089C13.169 9.98696 12.5967 9.7499 12 9.7499C11.4033 9.7499 10.831 9.98696 10.409 10.4089C9.98706 10.8309 9.75001 11.4032 9.75001 11.9999C9.75001 12.5966 9.98706 13.1689 10.409 13.5909C10.831 14.0128 11.4033 14.2499 12 14.2499Z" fill="currentColor"></path>
  </symbol>
  <symbol fill="none" xmlns="http://www.w3.org/2000/svg" viewBox="0 0 30 30" id="ic_filter">
    <path d="M12.75 21.75H17.25V19.5H12.75V21.75ZM4.875 8.25V10.5H25.125V8.25H4.875ZM8.25 16.125H21.75V13.875H8.25V16.125Z" fill="currentColor"></path>
  </symbol>
  <symbol fill="none" xmlns="http://www.w3.org/2000/svg" viewBox="0 0 30 30" id="ic_lk_menu1">
    <path d="M9.375 7.125V3.75C9.375 3.45163 9.49353 3.16548 9.7045 2.9545C9.91548 2.74353 10.2016 2.625 10.5 2.625H19.5C19.7984 2.625 20.0845 2.74353 20.2955 2.9545C20.5065 3.16548 20.625 3.45163 20.625 3.75V7.125H25.125C25.4234 7.125 25.7095 7.24353 25.9205 7.4545C26.1315 7.66548 26.25 7.95163 26.25 8.25V24C26.25 24.2984 26.1315 24.5845 25.9205 24.7955C25.7095 25.0065 25.4234 25.125 25.125 25.125H4.875C4.57663 25.125 4.29048 25.0065 4.0795 24.7955C3.86853 24.5845 3.75 24.2984 3.75 24V8.25C3.75 7.95163 3.86853 7.66548 4.0795 7.4545C4.29048 7.24353 4.57663 7.125 4.875 7.125H9.375ZM6 19.5V22.875H24V19.5H6ZM6 17.25H24V9.375H6V17.25ZM11.625 4.875V7.125H18.375V4.875H11.625ZM13.875 13.875H16.125V16.125H13.875V13.875Z" fill="currentColor"></path>
  </symbol>
  <symbol fill="none" xmlns="http://www.w3.org/2000/svg" viewBox="0 0 30 31" id="ic_lk_menu2">
    <path d="M18.375 6.57739H7.125V24.5774H22.875V11.0774H18.375V6.57739ZM4.875 5.44339C4.875 4.82689 5.37788 4.32739 5.99888 4.32739H19.5L25.125 9.95239V25.6945C25.126 25.8423 25.098 25.9888 25.0424 26.1256C24.9868 26.2625 24.9048 26.3871 24.8011 26.4923C24.6973 26.5975 24.5739 26.6813 24.4378 26.7388C24.3017 26.7962 24.1556 26.8264 24.0079 26.8274H5.99213C5.69668 26.8253 5.41389 26.7071 5.20487 26.4983C4.99585 26.2895 4.87736 26.0068 4.875 25.7114V5.44339ZM13.875 14.4524V11.0774H16.125V14.4524H19.5V16.7024H16.125V20.0774H13.875V16.7024H10.5V14.4524H13.875Z" fill="currentColor"></path>
  </symbol>
  <symbol fill="none" xmlns="http://www.w3.org/2000/svg" viewBox="0 0 30 31" id="ic_lk_menu3">
    <path d="M5.25748 20.7801C4.78191 19.9577 4.41222 19.0785 4.15723 18.1633C4.7122 17.8811 5.17827 17.4508 5.50388 16.9201C5.8295 16.3894 6.00196 15.779 6.0022 15.1563C6.00243 14.5337 5.83042 13.9231 5.5052 13.3922C5.17999 12.8613 4.71424 12.4306 4.15948 12.1479C4.66802 10.3091 5.6363 8.63002 6.9731 7.26882C7.49521 7.60826 8.10105 7.79663 8.72358 7.81308C9.34611 7.82952 9.96105 7.67341 10.5003 7.36201C11.0396 7.05061 11.4823 6.59607 11.7792 6.04869C12.0762 5.50132 12.2159 4.88245 12.183 4.26057C14.0304 3.78315 15.9689 3.78392 17.8159 4.26282C17.7832 4.88468 17.9232 5.50346 18.2204 6.05068C18.5176 6.5979 18.9604 7.05223 19.4998 7.36339C20.0392 7.67455 20.6542 7.83041 21.2767 7.81372C21.8992 7.79703 22.5049 7.60844 23.0269 7.26882C23.6782 7.93257 24.2565 8.68745 24.7425 9.53007C25.2296 10.3727 25.5941 11.2513 25.8427 12.1468C25.2878 12.4291 24.8217 12.8594 24.4961 13.3901C24.1705 13.9208 23.998 14.5312 23.9978 15.1538C23.9975 15.7764 24.1695 16.387 24.4948 16.9179C24.82 17.4489 25.2857 17.8795 25.8405 18.1622C25.3319 20.001 24.3637 21.6801 23.0269 23.0413C22.5047 22.7019 21.8989 22.5135 21.2764 22.4971C20.6538 22.4806 20.0389 22.6367 19.4996 22.9481C18.9603 23.2595 18.5177 23.7141 18.2207 24.2615C17.9237 24.8088 17.784 25.4277 17.817 26.0496C15.9696 26.527 14.0311 26.5262 12.1841 26.0473C12.2168 25.4255 12.0768 24.8067 11.7796 24.2595C11.4824 23.7122 11.0396 23.2579 10.5002 22.9468C9.96076 22.6356 9.34579 22.4797 8.72329 22.4964C8.1008 22.5131 7.49506 22.7017 6.9731 23.0413C6.30822 22.3629 5.73177 21.6031 5.25748 20.7801ZM11.625 21.0006C12.8238 21.692 13.7252 22.8017 14.1562 24.1168C14.7176 24.1697 15.2812 24.1708 15.8426 24.1179C16.2739 22.8027 17.1757 21.6929 18.375 21.0017C19.5733 20.3083 20.9856 20.082 22.3406 20.3661C22.6669 19.9071 22.9481 19.4177 23.1821 18.9058C22.259 17.8747 21.749 16.5391 21.75 15.1551C21.75 13.7376 22.2787 12.4135 23.1821 11.4043C22.9464 10.8926 22.664 10.4038 22.3384 9.94407C20.9842 10.2279 19.5729 10.002 18.375 9.30957C17.1761 8.61812 16.2748 7.50843 15.8437 6.19332C15.2824 6.14045 14.7187 6.13932 14.1574 6.1922C13.726 7.50749 12.8242 8.6172 11.625 9.30845C10.4266 10.0018 9.01439 10.2282 7.65935 9.94407C7.33374 10.4034 7.052 10.8923 6.81785 11.4043C7.74099 12.4355 8.25097 13.7711 8.24998 15.1551C8.24998 16.5726 7.72123 17.8967 6.81785 18.9058C7.05351 19.4175 7.33596 19.9064 7.6616 20.3661C9.01578 20.0822 10.4271 20.3082 11.625 21.0006ZM15 18.5301C14.1049 18.5301 13.2464 18.1745 12.6135 17.5416C11.9806 16.9086 11.625 16.0502 11.625 15.1551C11.625 14.26 11.9806 13.4015 12.6135 12.7686C13.2464 12.1357 14.1049 11.7801 15 11.7801C15.8951 11.7801 16.7535 12.1357 17.3865 12.7686C18.0194 13.4015 18.375 14.26 18.375 15.1551C18.375 16.0502 18.0194 16.9086 17.3865 17.5416C16.7535 18.1745 15.8951 18.5301 15 18.5301ZM15 16.2801C15.2983 16.2801 15.5845 16.1615 15.7955 15.9506C16.0064 15.7396 16.125 15.4534 16.125 15.1551C16.125 14.8567 16.0064 14.5706 15.7955 14.3596C15.5845 14.1486 15.2983 14.0301 15 14.0301C14.7016 14.0301 14.4155 14.1486 14.2045 14.3596C13.9935 14.5706 13.875 14.8567 13.875 15.1551C13.875 15.4534 13.9935 15.7396 14.2045 15.9506C14.4155 16.1615 14.7016 16.2801 15 16.2801Z" fill="currentColor"></path>
  </symbol>
  <symbol fill="none" xmlns="http://www.w3.org/2000/svg" viewBox="0 0 30 31" id="ic_lk_menu4">
    <path d="M15.4657 7.85742H25.125C25.4234 7.85742 25.7095 7.97595 25.9205 8.18693C26.1315 8.39791 26.25 8.68405 26.25 8.98242V24.7324C26.25 25.0308 26.1315 25.3169 25.9205 25.5279C25.7095 25.7389 25.4234 25.8574 25.125 25.8574H4.875C4.57663 25.8574 4.29048 25.7389 4.0795 25.5279C3.86853 25.3169 3.75 25.0308 3.75 24.7324V6.73242C3.75 6.43405 3.86853 6.14791 4.0795 5.93693C4.29048 5.72595 4.57663 5.60742 4.875 5.60742H13.2157L15.4657 7.85742ZM24 14.6074H6V23.6074H24V14.6074ZM24 12.3574V10.1074H14.5343L12.2843 7.85742H6V12.3574H24Z" fill="currentColor"></path>
  </symbol>
  <symbol fill="none" xmlns="http://www.w3.org/2000/svg" viewBox="0 0 30 31" id="ic_lk_menu5">
    <path d="M21.75 13.0601C21.75 11.2698 21.0388 9.55296 19.773 8.28709C18.5071 7.02122 16.7902 6.31006 15 6.31006C13.2098 6.31006 11.4929 7.02122 10.227 8.28709C8.96116 9.55296 8.25 11.2698 8.25 13.0601V22.0601H21.75V13.0601ZM24 22.8104L24.45 23.4101C24.5127 23.4936 24.5508 23.593 24.5602 23.697C24.5696 23.8011 24.5498 23.9057 24.5031 23.9991C24.4564 24.0926 24.3846 24.1711 24.2957 24.226C24.2069 24.281 24.1045 24.3101 24 24.3101H6C5.89554 24.3101 5.79314 24.281 5.70428 24.226C5.61542 24.1711 5.5436 24.0926 5.49688 23.9991C5.45017 23.9057 5.43039 23.8011 5.43977 23.697C5.44915 23.593 5.48732 23.4936 5.55 23.4101L6 22.8104V13.0601C6 10.6731 6.94821 8.38392 8.63604 6.6961C10.3239 5.00827 12.6131 4.06006 15 4.06006C17.3869 4.06006 19.6761 5.00827 21.364 6.6961C23.0518 8.38392 24 10.6731 24 13.0601V22.8104ZM12.1875 25.4351H17.8125C17.8125 26.181 17.5162 26.8964 16.9887 27.4238C16.4613 27.9512 15.7459 28.2476 15 28.2476C14.2541 28.2476 13.5387 27.9512 13.0113 27.4238C12.4838 26.8964 12.1875 26.181 12.1875 25.4351Z" fill="currentColor"></path>
  </symbol>
  <symbol fill="none" xmlns="http://www.w3.org/2000/svg" viewBox="0 0 30 31" id="ic_lk_menu6">
    <path d="M4.875 6.51245H25.125C25.4234 6.51245 25.7095 6.63098 25.9205 6.84196C26.1315 7.05293 26.25 7.33908 26.25 7.63745V24.1375C26.25 24.4358 26.1315 24.722 25.9205 24.9329C25.7095 25.1439 25.4234 25.2625 25.125 25.2625H4.875C4.57663 25.2625 4.29048 25.1439 4.0795 24.9329C3.86853 24.722 3.75 24.4358 3.75 24.1375V7.63745C3.75 7.33908 3.86853 7.05293 4.0795 6.84196C4.29048 6.63098 4.57663 6.51245 4.875 6.51245ZM24 11.2802L15.081 19.2677L6 11.2555V23.0125H24V11.2802ZM6.57488 8.76245L15.0686 16.2572L23.4398 8.76245H6.57488Z" fill="currentColor"></path>
  </symbol>
  <symbol fill="none" xmlns="http://www.w3.org/2000/svg" viewBox="0 0 30 31" id="ic_lk_menu7">
    <path d="M3.75 24.4651H26.25V26.7151H3.75V24.4651ZM6 15.4651H8.25V23.3401H6V15.4651ZM11.625 15.4651H13.875V23.3401H11.625V15.4651ZM16.125 15.4651H18.375V23.3401H16.125V15.4651ZM21.75 15.4651H24V23.3401H21.75V15.4651ZM3.75 9.84009L15 4.21509L26.25 9.84009V14.3401H3.75V9.84009ZM6 11.2306V12.0901H24V11.2306L15 6.73059L6 11.2306ZM15 10.9651C14.7016 10.9651 14.4155 10.8466 14.2045 10.6356C13.9935 10.4246 13.875 10.1385 13.875 9.84009C13.875 9.54172 13.9935 9.25557 14.2045 9.04459C14.4155 8.83361 14.7016 8.71509 15 8.71509C15.2984 8.71509 15.5845 8.83361 15.7955 9.04459C16.0065 9.25557 16.125 9.54172 16.125 9.84009C16.125 10.1385 16.0065 10.4246 15.7955 10.6356C15.5845 10.8466 15.2984 10.9651 15 10.9651Z" fill="currentColor"></path>
  </symbol>
  <symbol fill="none" xmlns="http://www.w3.org/2000/svg" viewBox="0 0 30 31" id="ic_lk_menu8">
    <path d="M6 21.7925H8.25V24.0425H21.75V6.04248H8.25V8.29248H6V4.91748C6 4.61911 6.11853 4.33296 6.3295 4.12199C6.54048 3.91101 6.82663 3.79248 7.125 3.79248H22.875C23.1734 3.79248 23.4595 3.91101 23.6705 4.12199C23.8815 4.33296 24 4.61911 24 4.91748V25.1675C24 25.4658 23.8815 25.752 23.6705 25.963C23.4595 26.174 23.1734 26.2925 22.875 26.2925H7.125C6.82663 26.2925 6.54048 26.174 6.3295 25.963C6.11853 25.752 6 25.4658 6 25.1675V21.7925ZM8.25 13.9175H16.125V16.1675H8.25V19.5425L2.625 15.0425L8.25 10.5425V13.9175Z" fill="currentColor"></path>
  </symbol>
  <symbol fill="none" xmlns="http://www.w3.org/2000/svg" viewBox="0 0 22 3" id="ic_minus">
    <rect x="22" y="0.0644531" width="2" height="22" rx="1" transform="rotate(90 22 0.0644531)" fill="currentColor"></rect>
  </symbol>
  <symbol fill="none" xmlns="http://www.w3.org/2000/svg" viewBox="0 0 30 30" id="ic_pdf">
    <path d="M8.4375 7.5H17.8125V11.25H21.5625V22.5H8.4375V7.5ZM7.49859 5.625C6.98202 5.625 6.5625 6.0413 6.5625 6.55481V23.4452C6.5625 23.9482 6.97946 24.375 7.49381 24.375H22.5062C23.0204 24.375 23.4375 23.9521 23.4375 23.4305L23.4372 10.3125L18.75 5.625H7.49859ZM13.5937 10.7812C13.5937 12.2601 13.1664 14.0037 12.4452 15.6126C11.7214 17.2272 10.7451 18.6096 9.72679 19.4242L10.8325 20.9363C13.577 19.1066 16.6156 17.852 19.5548 18.2719L19.9839 16.4543C17.4783 15.6191 15.4687 13.1156 15.4687 10.7812H13.5937ZM14.1562 16.3796C14.4068 15.8205 14.6289 15.2403 14.816 14.6517C15.2581 15.331 15.8018 15.9546 16.4157 16.4956C15.4953 16.6604 14.5936 16.9309 13.7205 17.2759C13.8749 16.9822 14.0204 16.6826 14.1562 16.3796Z" fill="currentColor"></path>
  </symbol>
  <symbol fill="none" xmlns="http://www.w3.org/2000/svg" viewBox="0 0 22 23" id="ic_plus">
    <rect x="22" y="10.0645" width="2" height="22" rx="1" transform="rotate(90 22 10.0645)" fill="currentColor"></rect>
    <rect x="12" y="22.0645" width="2" height="22" rx="1" transform="rotate(-180 12 22.0645)" fill="currentColor"></rect>
  </symbol>
  <symbol fill="none" xmlns="http://www.w3.org/2000/svg" viewBox="0 0 30 30" id="ic_search">
    <path d="M19.7444 19.7638L26.25 26.25M22.5 13.125C22.5 18.3027 18.3027 22.5 13.125 22.5C7.94733 22.5 3.75 18.3027 3.75 13.125C3.75 7.94733 7.94733 3.75 13.125 3.75C18.3027 3.75 22.5 7.94733 22.5 13.125Z" stroke="currentColor" stroke-width="2" stroke-linecap="round" stroke-linejoin="round"></path>
  </symbol>
  <symbol fill="none" xmlns="http://www.w3.org/2000/svg" viewBox="0 0 24 23" id="ic_send">
    <path d="M23.4378 11.5351L12.6616 0.758789L10.2064 3.21401L18.5274 11.5351L10.2064 19.8561L12.6616 22.3113L23.4378 11.5351ZM13.6289 11.5351L2.85269 0.758789L0.397461 3.21401L8.71852 11.5351L0.397461 19.8561L2.85269 22.3113L13.6289 11.5351Z" fill="currentColor"></path>
  </symbol>
  <symbol fill="none" xmlns="http://www.w3.org/2000/svg" viewBox="0 0 18 17" id="ic_time">
    <path d="M8.52065 16.5C7.53844 16.5 6.56586 16.3065 5.65842 15.9307C4.75098 15.5548 3.92647 15.0039 3.23194 14.3093C2.53742 13.6148 1.9865 12.7903 1.61062 11.8829C1.23475 10.9754 1.04129 10.0028 1.04129 9.02065C1.04129 8.03844 1.23475 7.06586 1.61062 6.15842C1.9865 5.25098 2.53742 4.42647 3.23194 3.73194C3.92647 3.03742 4.75098 2.4865 5.65842 2.11062C6.56586 1.73475 7.53844 1.54129 8.52065 1.54129C10.5043 1.54129 12.4067 2.32929 13.8093 3.73194C15.212 5.13459 16 7.037 16 9.02065C16 11.0043 15.212 12.9067 13.8093 14.3093C12.4067 15.712 10.5043 16.5 8.52065 16.5ZM8.52065 14.8379C9.28458 14.8379 10.041 14.6875 10.7468 14.3951C11.4526 14.1028 12.0939 13.6743 12.6341 13.1341C13.1743 12.5939 13.6028 11.9526 13.8951 11.2468C14.1875 10.541 14.3379 9.78458 14.3379 9.02065C14.3379 8.25671 14.1875 7.50026 13.8951 6.79447C13.6028 6.08869 13.1743 5.4474 12.6341 4.90721C12.0939 4.36703 11.4526 3.93853 10.7468 3.64618C10.041 3.35384 9.28458 3.20337 8.52065 3.20337C6.97781 3.20337 5.49816 3.81626 4.40721 4.90721C3.31626 5.99816 2.70337 7.47781 2.70337 9.02065C2.70337 10.5635 3.31626 12.0431 4.40721 13.1341C5.49816 14.225 6.97781 14.8379 8.52065 14.8379ZM9.35168 9.02065H11.8448V10.6827H7.68961V4.86545H9.35168V9.02065ZM0 3.43772L2.93772 0.5L4.11364 1.67509L1.17426 4.61364L0 3.43772ZM14.1027 0.5L17.0413 3.43772L15.8662 4.61364L12.9276 1.67509L14.1036 0.5H14.1027Z" fill="currentColor"></path>
  </symbol>
  <symbol fill="none" xmlns="http://www.w3.org/2000/svg" viewBox="0 0 24 24" id="ic_user">
    <path d="M4.7998 21.0001C4.7998 19.0905 5.55837 17.2592 6.90864 15.9089C8.2589 14.5587 10.0902 13.8001 11.9998 13.8001C13.9094 13.8001 15.7407 14.5587 17.091 15.9089C18.4412 17.2592 19.1998 19.0905 19.1998 21.0001H4.7998ZM12.8998 15.6748V19.2001H17.0929C16.7712 18.2924 16.2129 17.487 15.4757 16.8673C14.7386 16.2475 13.8493 15.8358 12.8998 15.6748ZM11.0998 19.2001V15.6748C10.1503 15.8358 9.26102 16.2475 8.52387 16.8673C7.78672 17.487 7.22843 18.2924 6.9067 19.2001H11.0998ZM11.9998 12.9001C9.0163 12.9001 6.5998 10.4836 6.5998 7.5001C6.5998 4.5166 9.0163 2.1001 11.9998 2.1001C14.9833 2.1001 17.3998 4.5166 17.3998 7.5001C17.3998 10.4836 14.9833 12.9001 11.9998 12.9001ZM11.9998 11.1001C13.9888 11.1001 15.5998 9.4891 15.5998 7.5001C15.5998 5.5111 13.9888 3.9001 11.9998 3.9001C10.0108 3.9001 8.3998 5.5111 8.3998 7.5001C8.3998 9.4891 10.0108 11.1001 11.9998 11.1001Z" fill="currentColor"></path>
  </symbol>
  <symbol fill="none" xmlns="http://www.w3.org/2000/svg" viewBox="0 0 30 31" id="ic_word">
    <path d="M19.5 11.3457V20.3457H17.25L15 18.0957L12.75 20.3457H10.5V11.3457H12.75V16.9707L15 14.7207L17.25 16.9707V11.3457H18.375V6.8457H7.125V24.8457H22.875V11.3457H19.5ZM4.875 5.7117C4.875 5.0952 5.37788 4.5957 5.99888 4.5957H19.5L25.125 10.2207V25.9628C25.126 26.1106 25.098 26.2571 25.0424 26.394C24.9868 26.5308 24.9048 26.6554 24.8011 26.7606C24.6973 26.8658 24.5739 26.9496 24.4378 27.0071C24.3017 27.0646 24.1556 27.0947 24.0079 27.0957H5.99213C5.69668 27.0936 5.41389 26.9754 5.20487 26.7666C4.99585 26.5578 4.87736 26.2752 4.875 25.9797V5.7117Z" fill="currentColor"></path>
  </symbol>
  <symbol fill="none" xmlns="http://www.w3.org/2000/svg" viewBox="0 0 30 30" id="ic_zoom">
    <path d="M24 4.875H26.25V11.625H24V7.125H19.5V4.875H24ZM6 4.875H10.5V7.125H6V11.625H3.75V4.875H6ZM24 22.875V18.375H26.25V25.125H19.5V22.875H24ZM6 22.875H10.5V25.125H3.75V18.375H6V22.875Z" fill="currentColor"></path>
  </symbol>
</svg>